# Aspose.3D Wavefront OBJ Exporter
# Copyright 2004-2025 Aspose Pty Ltd.
# File created: 12/05/2025 16:26:31

mtllib material.lib
g fibula_ring_2

#
# object fibula_ring_2
#

v -0.017822 1.5 -1.329712
v -0.077822 1.5 -1.269422
v -0.047822 1.5 -1.321635
v -0.069783 1.5 -1.299567
v 0.077822 1.5 -1.269422
v 0.017822 1.5 -1.329712
v 0.069783 1.5 -1.299567
v 0.047822 1.5 -1.321635
v -0.077822 1.252348 -1.24503
v -0.017822 1.240586 -1.304162
v -0.069783 1.246467 -1.274596
v -0.047822 1.242162 -1.29624
v 0.017822 1.240586 -1.304162
v 0.077822 1.252348 -1.24503
v 0.047822 1.242162 -1.29624
v 0.069783 1.246467 -1.274596
v -0.077822 1.014213 -1.172793
v -0.017822 0.991141 -1.228494
v -0.069783 1.002677 -1.200643
v -0.047822 0.994232 -1.221031
v 0.017822 0.991141 -1.228494
v 0.077822 1.014213 -1.172793
v 0.047822 0.994232 -1.221031
v 0.069783 1.002677 -1.200643
v -0.077822 0.794747 -1.055486
v -0.017822 0.761252 -1.105615
v -0.069783 0.777999 -1.08055
v -0.047822 0.765739 -1.098899
v 0.017822 0.761252 -1.105615
v 0.077822 0.794747 -1.055486
v 0.047822 0.765739 -1.098899
v 0.069783 0.777999 -1.08055
v -0.077822 0.602383 -0.897617
v -0.017822 0.559752 -0.940248
v -0.069783 0.581067 -0.918933
v -0.047822 0.565463 -0.934537
v 0.017822 0.559752 -0.940248
v 0.077822 0.602383 -0.897617
v 0.047822 0.565463 -0.934537
v 0.069783 0.581067 -0.918933
v -0.077822 0.444514 -0.705253
v -0.017822 0.394385 -0.738748
v -0.069783 0.41945 -0.722001
v -0.047822 0.401101 -0.734261
v 0.017822 0.394385 -0.738748
v 0.077822 0.444514 -0.705253
v 0.047822 0.401101 -0.734261
v 0.069783 0.41945 -0.722001
v -0.077822 0.327207 -0.485787
v -0.017822 0.271506 -0.508859
v -0.069783 0.299357 -0.497323
v -0.047822 0.278969 -0.505768
v 0.017822 0.271506 -0.508859
v 0.077822 0.327207 -0.485787
v 0.047822 0.278969 -0.505768
v 0.069783 0.299357 -0.497323
v -0.077822 0.25497 -0.247652
v -0.017822 0.195838 -0.259414
v -0.069783 0.225404 -0.253533
v -0.047822 0.20376 -0.257838
v 0.017822 0.195838 -0.259414
v 0.077822 0.25497 -0.247652
v 0.047822 0.20376 -0.257838
v 0.069783 0.225404 -0.253533
v -0.077822 0.230578 0
v -0.017822 0.170288 0
v -0.069783 0.200433 0
v -0.047822 0.178365 0
v 0.017822 0.170288 0
v 0.077822 0.230578 0
v 0.047822 0.178365 0
v 0.069783 0.200433 0
v -0.077822 0.25497 0.247652
v -0.017822 0.195838 0.259414
v -0.069783 0.225404 0.253533
v -0.047822 0.20376 0.257838
v 0.017822 0.195838 0.259414
v 0.077822 0.25497 0.247652
v 0.047822 0.20376 0.257838
v 0.069783 0.225404 0.253533
v -0.077822 0.327207 0.485787
v -0.017822 0.271506 0.508859
v -0.069783 0.299357 0.497323
v -0.047822 0.278969 0.505768
v 0.017822 0.271506 0.508859
v 0.077822 0.327207 0.485787
v 0.047822 0.278969 0.505768
v 0.069783 0.299357 0.497323
v -0.077822 0.444514 0.705253
v -0.017822 0.394385 0.738748
v -0.069783 0.41945 0.722001
v -0.047822 0.401101 0.734261
v 0.017822 0.394385 0.738748
v 0.077822 0.444514 0.705253
v 0.047822 0.401101 0.734261
v 0.069783 0.41945 0.722001
v -0.077822 0.602383 0.897617
v -0.017822 0.559752 0.940248
v -0.069783 0.581067 0.918933
v -0.047822 0.565463 0.934537
v 0.017822 0.559752 0.940248
v 0.077822 0.602383 0.897617
v 0.047822 0.565463 0.934537
v 0.069783 0.581067 0.918933
v -0.077822 0.794747 1.055486
v -0.017822 0.761252 1.105615
v -0.069783 0.777999 1.08055
v -0.047822 0.765739 1.098899
v 0.017822 0.761252 1.105615
v 0.077822 0.794747 1.055486
v 0.047822 0.765739 1.098899
v 0.069783 0.777999 1.08055
v -0.077822 1.014213 1.172793
v -0.017822 0.991141 1.228494
v -0.069783 1.002677 1.200643
v -0.047822 0.994232 1.221031
v 0.017822 0.991141 1.228494
v 0.077822 1.014213 1.172793
v 0.047822 0.994232 1.221031
v 0.069783 1.002677 1.200643
v -0.077822 1.252348 1.24503
v -0.017822 1.240586 1.304162
v -0.069783 1.246467 1.274596
v -0.047822 1.242162 1.29624
v 0.017822 1.240586 1.304162
v 0.077822 1.252348 1.24503
v 0.047822 1.242162 1.29624
v 0.069783 1.246467 1.274596
v -0.077822 1.5 1.269422
v -0.017822 1.5 1.329712
v -0.069783 1.5 1.299567
v -0.047822 1.5 1.321635
v 0.017822 1.5 1.329712
v 0.077822 1.5 1.269422
v 0.047822 1.5 1.321635
v 0.069783 1.5 1.299567
v -0.077822 1.747652 1.24503
v -0.017822 1.759414 1.304162
v -0.069783 1.753533 1.274596
v -0.047822 1.757838 1.29624
v 0.017822 1.759414 1.304162
v 0.077822 1.747652 1.24503
v 0.047822 1.757838 1.29624
v 0.069783 1.753533 1.274596
v -0.077822 1.985787 1.172793
v -0.017822 2.008859 1.228494
v -0.069783 1.997323 1.200643
v -0.047822 2.005768 1.221031
v 0.017822 2.008859 1.228494
v 0.077822 1.985787 1.172793
v 0.047822 2.005768 1.221031
v 0.069783 1.997323 1.200643
v -0.077822 2.205253 1.055486
v -0.017822 2.238749 1.105615
v -0.069783 2.222001 1.08055
v -0.047822 2.234261 1.098899
v 0.017822 2.238749 1.105615
v 0.077822 2.205253 1.055486
v 0.047822 2.234261 1.098899
v 0.069783 2.222001 1.080551
v -0.077822 2.397617 0.897617
v -0.017822 2.440249 0.940248
v -0.069783 2.418933 0.918933
v -0.047822 2.434537 0.934537
v 0.017822 2.440249 0.940248
v 0.077822 2.397617 0.897617
v 0.047822 2.434537 0.934537
v 0.069783 2.418933 0.918933
v -0.077822 2.555486 0.705253
v -0.017822 2.605616 0.738748
v -0.069783 2.580551 0.722001
v -0.047822 2.598899 0.734261
v 0.017822 2.605616 0.738748
v 0.077822 2.555486 0.705253
v 0.047822 2.598899 0.734261
v 0.069783 2.580551 0.722001
v -0.077822 2.672793 0.485787
v -0.017822 2.728494 0.508859
v -0.069783 2.700644 0.497323
v -0.047822 2.721032 0.505768
v 0.017822 2.728494 0.508859
v 0.077822 2.672793 0.485787
v 0.047822 2.721032 0.505768
v 0.069783 2.700644 0.497323
v -0.077822 2.74503 0.247652
v -0.017822 2.804163 0.259414
v -0.069783 2.774596 0.253533
v -0.047822 2.79624 0.257838
v 0.017822 2.804163 0.259414
v 0.077822 2.74503 0.247652
v 0.047822 2.79624 0.257838
v 0.069783 2.774596 0.253533
v -0.077822 2.769422 0
v -0.017822 2.829712 0
v -0.069783 2.799567 0
v -0.047822 2.821635 0
v 0.017822 2.829712 0
v 0.077822 2.769422 0
v 0.047822 2.821635 0
v 0.069783 2.799567 0
v -0.077822 2.74503 -0.247652
v -0.017822 2.804163 -0.259414
v -0.069783 2.774596 -0.253533
v -0.047822 2.79624 -0.257838
v 0.017822 2.804163 -0.259414
v 0.077822 2.74503 -0.247652
v 0.047822 2.79624 -0.257838
v 0.069783 2.774596 -0.253533
v -0.077822 2.672793 -0.485787
v -0.017822 2.728494 -0.508859
v -0.069783 2.700644 -0.497323
v -0.047822 2.721032 -0.505768
v 0.017822 2.728494 -0.508859
v 0.077822 2.672793 -0.485787
v 0.047822 2.721032 -0.505768
v 0.069783 2.700644 -0.497323
v -0.077822 2.555486 -0.705253
v -0.017822 2.605616 -0.738748
v -0.069783 2.580551 -0.722001
v -0.047822 2.598899 -0.734261
v 0.017822 2.605616 -0.738748
v 0.077822 2.555486 -0.705253
v 0.047822 2.598899 -0.734261
v 0.069783 2.580551 -0.722001
v -0.077822 2.397617 -0.897617
v -0.017822 2.440249 -0.940248
v -0.069783 2.418933 -0.918933
v -0.047822 2.434537 -0.934537
v 0.017822 2.440249 -0.940248
v 0.077822 2.397617 -0.897617
v 0.047822 2.434537 -0.934537
v 0.069783 2.418933 -0.918933
v -0.077822 2.205253 -1.055486
v -0.017822 2.238749 -1.105615
v -0.069783 2.222001 -1.080551
v -0.047822 2.234261 -1.098899
v 0.017822 2.238749 -1.105615
v 0.077822 2.205253 -1.055486
v 0.047822 2.234261 -1.098899
v 0.069783 2.222001 -1.08055
v -0.077822 1.985787 -1.172793
v -0.017822 2.008859 -1.228494
v -0.069783 1.997323 -1.200643
v -0.047822 2.005768 -1.221031
v 0.017822 2.008859 -1.228494
v 0.077822 1.985787 -1.172793
v 0.047822 2.005768 -1.221031
v 0.069783 1.997323 -1.200643
v -0.077822 1.747652 -1.24503
v -0.017822 1.759414 -1.304162
v -0.069783 1.753533 -1.274596
v -0.047822 1.757838 -1.29624
v 0.017822 1.759414 -1.304162
v 0.077822 1.747652 -1.24503
v 0.047822 1.757838 -1.29624
v 0.069783 1.753533 -1.274596
v -0.017822 1.267208 -1.170325
v -0.077822 1.255446 -1.229457
v -0.047822 1.265632 -1.178247
v -0.069783 1.261327 -1.199891
v -0.077822 1.5 -1.253543
v -0.017822 1.5 -1.193253
v -0.069783 1.5 -1.223398
v -0.047822 1.5 -1.20133
v 0.017822 1.5 -1.193253
v 0.077822 1.5 -1.253543
v 0.047822 1.5 -1.20133
v 0.069783 1.5 -1.223398
v 0.077822 1.255446 -1.229457
v 0.017822 1.267208 -1.170325
v 0.069783 1.261327 -1.199891
v 0.047822 1.265632 -1.178247
v -0.017822 1.043362 -1.102422
v -0.077822 1.02029 -1.158123
v -0.047822 1.040271 -1.109884
v -0.069783 1.031826 -1.130272
v 0.077822 1.02029 -1.158123
v 0.017822 1.043362 -1.102422
v 0.069783 1.031826 -1.130272
v 0.047822 1.040271 -1.109884
v -0.017822 0.837064 -0.992153
v -0.077822 0.803569 -1.042283
v -0.047822 0.832577 -0.99887
v -0.069783 0.820317 -1.017218
v 0.077822 0.803569 -1.042283
v 0.017822 0.837064 -0.992153
v 0.069783 0.820317 -1.017218
v 0.047822 0.832577 -0.99887
v -0.017822 0.656243 -0.843757
v -0.077822 0.613611 -0.886389
v -0.047822 0.650531 -0.849469
v -0.069783 0.634927 -0.865073
v 0.077822 0.613611 -0.886389
v 0.017822 0.656243 -0.843757
v 0.069783 0.634927 -0.865073
v 0.047822 0.650531 -0.849469
v -0.017822 0.507847 -0.662936
v -0.077822 0.457717 -0.696431
v -0.047822 0.501131 -0.667423
v -0.069783 0.482782 -0.679683
v 0.077822 0.457717 -0.696431
v 0.017822 0.507847 -0.662936
v 0.069783 0.482782 -0.679683
v 0.047822 0.501131 -0.667423
v -0.017822 0.397578 -0.456638
v -0.077822 0.341877 -0.47971
v -0.047822 0.390116 -0.459729
v -0.069783 0.369728 -0.468174
v 0.077822 0.341877 -0.47971
v 0.017822 0.397578 -0.456638
v 0.069783 0.369728 -0.468174
v 0.047822 0.390116 -0.459729
v -0.017822 0.329675 -0.232792
v -0.077822 0.270544 -0.244554
v -0.047822 0.321753 -0.234368
v -0.069783 0.30011 -0.238673
v 0.077822 0.270544 -0.244554
v 0.017822 0.329675 -0.232792
v 0.069783 0.30011 -0.238673
v 0.047822 0.321753 -0.234368
v -0.017822 0.306747 0
v -0.077822 0.246457 0
v -0.047822 0.29867 0
v -0.069783 0.276602 0
v 0.077822 0.246457 0
v 0.017822 0.306747 0
v 0.069783 0.276602 0
v 0.047822 0.29867 0
v -0.017822 0.329675 0.232792
v -0.077822 0.270544 0.244554
v -0.047822 0.321753 0.234368
v -0.069783 0.30011 0.238673
v 0.077822 0.270544 0.244554
v 0.017822 0.329675 0.232792
v 0.069783 0.30011 0.238673
v 0.047822 0.321753 0.234368
v -0.017822 0.397578 0.456638
v -0.077822 0.341877 0.47971
v -0.047822 0.390116 0.459729
v -0.069783 0.369728 0.468174
v 0.077822 0.341877 0.47971
v 0.017822 0.397578 0.456638
v 0.069783 0.369728 0.468174
v 0.047822 0.390116 0.459729
v -0.017822 0.507847 0.662936
v -0.077822 0.457717 0.696431
v -0.047822 0.501131 0.667423
v -0.069783 0.482782 0.679683
v 0.077822 0.457717 0.696431
v 0.017822 0.507847 0.662936
v 0.069783 0.482782 0.679683
v 0.047822 0.501131 0.667423
v -0.017822 0.656243 0.843757
v -0.077822 0.613611 0.886389
v -0.047822 0.650531 0.849469
v -0.069783 0.634927 0.865073
v 0.077822 0.613611 0.886389
v 0.017822 0.656243 0.843757
v 0.069783 0.634927 0.865073
v 0.047822 0.650531 0.849469
v -0.017822 0.837064 0.992153
v -0.077822 0.803569 1.042283
v -0.047822 0.832577 0.99887
v -0.069783 0.820317 1.017218
v 0.077822 0.803569 1.042283
v 0.017822 0.837064 0.992153
v 0.069783 0.820317 1.017218
v 0.047822 0.832577 0.99887
v -0.017822 1.043362 1.102422
v -0.077822 1.02029 1.158123
v -0.047822 1.040271 1.109884
v -0.069783 1.031826 1.130272
v 0.077822 1.02029 1.158123
v 0.017822 1.043362 1.102422
v 0.069783 1.031826 1.130272
v 0.047822 1.040271 1.109884
v -0.017822 1.267208 1.170325
v -0.077822 1.255446 1.229457
v -0.047822 1.265632 1.178247
v -0.069783 1.261327 1.199891
v 0.077822 1.255446 1.229457
v 0.017822 1.267208 1.170325
v 0.069783 1.261327 1.199891
v 0.047822 1.265632 1.178247
v -0.017822 1.5 1.193253
v -0.077822 1.5 1.253543
v -0.047822 1.5 1.20133
v -0.069783 1.5 1.223398
v 0.077822 1.5 1.253543
v 0.017822 1.5 1.193253
v 0.069783 1.5 1.223398
v 0.047822 1.5 1.20133
v -0.017822 1.732792 1.170325
v -0.077822 1.744554 1.229457
v -0.047822 1.734368 1.178247
v -0.069783 1.738673 1.199891
v 0.077822 1.744554 1.229457
v 0.017822 1.732792 1.170325
v 0.069783 1.738673 1.199891
v 0.047822 1.734368 1.178247
v -0.017822 1.956638 1.102422
v -0.077822 1.97971 1.158123
v -0.047822 1.959729 1.109884
v -0.069783 1.968174 1.130272
v 0.077822 1.97971 1.158123
v 0.017822 1.956638 1.102422
v 0.069783 1.968174 1.130272
v 0.047822 1.959729 1.109884
v -0.017822 2.162936 0.992153
v -0.077822 2.196431 1.042283
v -0.047822 2.167423 0.99887
v -0.069783 2.179684 1.017218
v 0.077822 2.196431 1.042283
v 0.017822 2.162936 0.992153
v 0.069783 2.179684 1.017218
v 0.047822 2.167423 0.99887
v -0.017822 2.343757 0.843757
v -0.077822 2.386389 0.886389
v -0.047822 2.349469 0.849469
v -0.069783 2.365073 0.865073
v 0.077822 2.386389 0.886389
v 0.017822 2.343757 0.843757
v 0.069783 2.365073 0.865073
v 0.047822 2.349469 0.849469
v -0.017822 2.492153 0.662936
v -0.077822 2.542283 0.696431
v -0.047822 2.498869 0.667423
v -0.069783 2.517218 0.679683
v 0.077822 2.542283 0.696431
v 0.017822 2.492153 0.662936
v 0.069783 2.517218 0.679683
v 0.047822 2.498869 0.667423
v -0.017822 2.602422 0.456638
v -0.077822 2.658123 0.47971
v -0.047822 2.609884 0.459729
v -0.069783 2.630272 0.468174
v 0.077822 2.658123 0.47971
v 0.017822 2.602422 0.456638
v 0.069783 2.630272 0.468174
v 0.047822 2.609884 0.459729
v -0.017822 2.670325 0.232792
v -0.077822 2.729457 0.244554
v -0.047822 2.678247 0.234368
v -0.069783 2.699891 0.238673
v 0.077822 2.729457 0.244554
v 0.017822 2.670325 0.232792
v 0.069783 2.699891 0.238673
v 0.047822 2.678247 0.234368
v -0.017822 2.693253 0
v -0.077822 2.753543 0
v -0.047822 2.70133 0
v -0.069783 2.723398 0
v 0.077822 2.753543 0
v 0.017822 2.693253 0
v 0.069783 2.723398 0
v 0.047822 2.70133 0
v -0.017822 2.670325 -0.232792
v -0.077822 2.729457 -0.244554
v -0.047822 2.678247 -0.234368
v -0.069783 2.699891 -0.238673
v 0.077822 2.729457 -0.244554
v 0.017822 2.670325 -0.232792
v 0.069783 2.699891 -0.238673
v 0.047822 2.678247 -0.234368
v -0.017822 2.602422 -0.456638
v -0.077822 2.658123 -0.47971
v -0.047822 2.609884 -0.459729
v -0.069783 2.630272 -0.468174
v 0.077822 2.658123 -0.47971
v 0.017822 2.602422 -0.456638
v 0.069783 2.630272 -0.468174
v 0.047822 2.609884 -0.459729
v -0.017822 2.492153 -0.662936
v -0.077822 2.542283 -0.696431
v -0.047822 2.498869 -0.667423
v -0.069783 2.517218 -0.679683
v 0.077822 2.542283 -0.696431
v 0.017822 2.492153 -0.662936
v 0.069783 2.517218 -0.679683
v 0.047822 2.498869 -0.667423
v -0.017822 2.343757 -0.843757
v -0.077822 2.386389 -0.886389
v -0.047822 2.349469 -0.849469
v -0.069783 2.365073 -0.865073
v 0.077822 2.386389 -0.886389
v 0.017822 2.343757 -0.843757
v 0.069783 2.365073 -0.865073
v 0.047822 2.349469 -0.849469
v -0.017822 2.162936 -0.992153
v -0.077822 2.196431 -1.042283
v -0.047822 2.167423 -0.99887
v -0.069783 2.179684 -1.017218
v 0.077822 2.196431 -1.042283
v 0.017822 2.162936 -0.992153
v 0.069783 2.179684 -1.017218
v 0.047822 2.167423 -0.99887
v -0.017822 1.956638 -1.102422
v -0.077822 1.97971 -1.158123
v -0.047822 1.959729 -1.109884
v -0.069783 1.968174 -1.130272
v 0.077822 1.97971 -1.158123
v 0.017822 1.956638 -1.102422
v 0.069783 1.968174 -1.130272
v 0.047822 1.959729 -1.109884
v -0.017822 1.732792 -1.170325
v -0.077822 1.744554 -1.229457
v -0.047822 1.734368 -1.178247
v -0.069783 1.738673 -1.199891
v 0.077822 1.744554 -1.229457
v 0.017822 1.732792 -1.170325
v 0.069783 1.738673 -1.199891
v 0.047822 1.734368 -1.178247
# 512 vertices

vn 0 -0.098 0.9952
vn 1 0 0
vn 0 -0.2903 -0.9569
vn 0 0.098 -0.9952
vn 0 -0.6344 -0.773
vn 0 -0.773 -0.6344
vn 0 -0.8819 -0.4714
vn 0 -0.9569 -0.2903
vn 0 -0.9952 -0.098
vn 0 -0.9952 0.098
vn 0 -0.9569 0.2903
vn 0 -0.8819 0.4714
vn 0 -0.773 0.6344
vn 0 -0.6344 0.773
vn 0 -0.4714 0.8819
vn 0 -0.2903 0.9569
vn 0 0.098 0.9952
vn 0 0.2903 0.9569
vn 0 0.4714 0.8819
vn 0 0.6344 0.773
vn 0 0.773 0.6344
vn 0 0.8819 0.4714
vn 0 0.9569 0.2903
vn 0 0.9952 0.098
vn 0 0.9952 -0.098
vn 0 0.9569 -0.2903
vn 0 0.8819 -0.4714
vn 0 0.773 -0.6344
vn 0 0.6344 -0.773
vn 0 0.4714 -0.8819
vn 0 0.2903 -0.9569
vn 0 -0.4714 -0.8819
vn -1 0 0
vn 0 -0.098 -0.9952
vn 0.2588 0.0947 0.9613
vn 0.7071 0.0693 0.7037
vn 0.9659 0.0254 0.2576
vn -0.2588 0.0947 0.9613
vn -0.7071 0.0693 0.7037
vn -0.9659 0.0254 0.2576
vn 0.2588 0.2804 0.9243
vn 0.7071 0.2053 0.6767
vn 0.9659 0.0751 0.2477
vn -0.2588 0.2804 0.9243
vn -0.7071 0.2053 0.6767
vn -0.9659 0.0751 0.2477
vn 0.2588 0.4553 0.8519
vn 0.7071 0.3333 0.6236
vn 0.9659 0.122 0.2283
vn -0.2588 0.4553 0.8519
vn -0.7071 0.3333 0.6236
vn -0.9659 0.122 0.2283
vn 0.2588 0.6128 0.7467
vn 0.7071 0.4486 0.5466
vn 0.9659 0.1642 0.2001
vn -0.2588 0.6128 0.7467
vn -0.7071 0.4486 0.5466
vn -0.9659 0.1642 0.2001
vn 0.2588 0.7467 0.6128
vn 0.7071 0.5466 0.4486
vn 0.9659 0.2001 0.1642
vn -0.2588 0.7467 0.6128
vn -0.7071 0.5466 0.4486
vn -0.9659 0.2001 0.1642
vn 0.2588 0.8519 0.4553
vn 0.7071 0.6236 0.3333
vn 0.9659 0.2283 0.122
vn -0.2588 0.8519 0.4553
vn -0.7071 0.6236 0.3333
vn -0.9659 0.2283 0.122
vn 0.2588 0.9243 0.2804
vn 0.7071 0.6767 0.2053
vn 0.9659 0.2477 0.0751
vn -0.2588 0.9243 0.2804
vn -0.7071 0.6767 0.2053
vn -0.9659 0.2477 0.0751
vn 0.2588 0.9613 0.0947
vn 0.7071 0.7037 0.0693
vn 0.9659 0.2576 0.0254
vn -0.2588 0.9613 0.0947
vn -0.7071 0.7037 0.0693
vn -0.9659 0.2576 0.0254
vn 0.2588 0.9613 -0.0947
vn 0.7071 0.7037 -0.0693
vn 0.9659 0.2576 -0.0254
vn -0.2588 0.9613 -0.0947
vn -0.7071 0.7037 -0.0693
vn -0.9659 0.2576 -0.0254
vn 0.2588 0.9243 -0.2804
vn 0.7071 0.6767 -0.2053
vn 0.9659 0.2477 -0.0751
vn -0.2588 0.9243 -0.2804
vn -0.7071 0.6767 -0.2053
vn -0.9659 0.2477 -0.0751
vn 0.2588 0.8519 -0.4553
vn 0.7071 0.6236 -0.3333
vn 0.9659 0.2283 -0.122
vn -0.2588 0.8519 -0.4553
vn -0.7071 0.6236 -0.3333
vn -0.9659 0.2283 -0.122
vn 0.2588 0.7467 -0.6128
vn 0.7071 0.5466 -0.4486
vn 0.9659 0.2001 -0.1642
vn -0.2588 0.7467 -0.6128
vn -0.7071 0.5466 -0.4486
vn -0.9659 0.2001 -0.1642
vn 0.2588 0.6128 -0.7467
vn 0.7071 0.4486 -0.5466
vn 0.9659 0.1642 -0.2001
vn -0.2588 0.6128 -0.7467
vn -0.7071 0.4486 -0.5466
vn -0.9659 0.1642 -0.2001
vn 0.2588 0.4553 -0.8519
vn 0.7071 0.3333 -0.6236
vn 0.9659 0.122 -0.2283
vn -0.2588 0.4553 -0.8519
vn -0.7071 0.3333 -0.6236
vn -0.9659 0.122 -0.2283
vn 0.2588 0.2804 -0.9243
vn 0.7071 0.2053 -0.6767
vn 0.9659 0.0751 -0.2477
vn -0.2588 0.2804 -0.9243
vn -0.7071 0.2053 -0.6767
vn -0.9659 0.0751 -0.2477
vn 0.2588 0.0947 -0.9613
vn 0.7071 0.0693 -0.7037
vn 0.9659 0.0254 -0.2576
vn -0.2588 0.0947 -0.9613
vn -0.7071 0.0693 -0.7037
vn -0.9659 0.0254 -0.2576
vn 0.2588 -0.0947 -0.9613
vn 0.7071 -0.0693 -0.7037
vn 0.9659 -0.0254 -0.2576
vn -0.2588 -0.0947 -0.9613
vn -0.7071 -0.0693 -0.7037
vn -0.9659 -0.0254 -0.2576
vn 0.2588 -0.2804 -0.9243
vn 0.7071 -0.2053 -0.6767
vn 0.9659 -0.0751 -0.2477
vn -0.2588 -0.2804 -0.9243
vn -0.7071 -0.2053 -0.6767
vn -0.9659 -0.0751 -0.2477
vn 0.2588 -0.4553 -0.8519
vn 0.7071 -0.3333 -0.6236
vn 0.9659 -0.122 -0.2283
vn -0.2588 -0.4553 -0.8519
vn -0.7071 -0.3333 -0.6236
vn -0.9659 -0.122 -0.2283
vn 0.2588 -0.6128 -0.7467
vn 0.7071 -0.4486 -0.5466
vn 0.9659 -0.1642 -0.2001
vn -0.2588 -0.6128 -0.7467
vn -0.7071 -0.4486 -0.5466
vn -0.9659 -0.1642 -0.2001
vn 0.2588 -0.7467 -0.6128
vn 0.7071 -0.5466 -0.4486
vn 0.9659 -0.2001 -0.1642
vn -0.2588 -0.7467 -0.6128
vn -0.7071 -0.5466 -0.4486
vn -0.9659 -0.2001 -0.1642
vn 0.2588 -0.8519 -0.4553
vn 0.7071 -0.6236 -0.3333
vn 0.9659 -0.2283 -0.122
vn -0.2588 -0.8519 -0.4553
vn -0.7071 -0.6236 -0.3333
vn -0.9659 -0.2283 -0.122
vn 0.2588 -0.9243 -0.2804
vn 0.7071 -0.6767 -0.2053
vn 0.9659 -0.2477 -0.0751
vn -0.2588 -0.9243 -0.2804
vn -0.7071 -0.6767 -0.2053
vn -0.9659 -0.2477 -0.0751
vn 0.2588 -0.9613 -0.0947
vn 0.7071 -0.7037 -0.0693
vn 0.9659 -0.2576 -0.0254
vn -0.2588 -0.9613 -0.0947
vn -0.7071 -0.7037 -0.0693
vn -0.9659 -0.2576 -0.0254
vn 0.2588 -0.9613 0.0947
vn 0.7071 -0.7037 0.0693
vn 0.9659 -0.2576 0.0254
vn -0.2588 -0.9613 0.0947
vn -0.7071 -0.7037 0.0693
vn -0.9659 -0.2576 0.0254
vn 0.2588 -0.9243 0.2804
vn 0.7071 -0.6767 0.2053
vn 0.9659 -0.2477 0.0751
vn -0.2588 -0.9243 0.2804
vn -0.7071 -0.6767 0.2053
vn -0.9659 -0.2477 0.0751
vn 0.2588 -0.8519 0.4553
vn 0.7071 -0.6236 0.3333
vn 0.9659 -0.2283 0.122
vn -0.2588 -0.8519 0.4553
vn -0.7071 -0.6236 0.3333
vn -0.9659 -0.2283 0.122
vn 0.2588 -0.7467 0.6128
vn 0.7071 -0.5466 0.4486
vn 0.9659 -0.2001 0.1642
vn -0.2588 -0.7467 0.6128
vn -0.7071 -0.5466 0.4486
vn -0.9659 -0.2001 0.1642
vn 0.2588 -0.6128 0.7467
vn 0.7071 -0.4486 0.5466
vn 0.9659 -0.1642 0.2001
vn -0.2588 -0.6128 0.7467
vn -0.7071 -0.4486 0.5466
vn -0.9659 -0.1642 0.2001
vn 0.2588 -0.4553 0.8519
vn 0.7071 -0.3333 0.6236
vn 0.9659 -0.122 0.2283
vn -0.2588 -0.4553 0.8519
vn -0.7071 -0.3333 0.6236
vn -0.9659 -0.122 0.2283
vn 0.2588 -0.2804 0.9243
vn 0.7071 -0.2053 0.6767
vn 0.9659 -0.0751 0.2477
vn -0.2588 -0.2804 0.9243
vn -0.7071 -0.2053 0.6767
vn -0.9659 -0.0751 0.2477
vn 0.2588 -0.0947 0.9613
vn 0.7071 -0.0693 0.7037
vn 0.9659 -0.0254 0.2576
vn -0.2588 -0.0947 0.9613
vn -0.7071 -0.0693 0.7037
vn -0.9659 -0.0254 0.2576
# 226 vertex normals

vt 0.03125 0.385496 0
vt 0 0.385496 0
vt 0 0.614504 0
vt 0.03125 0.614504 0
vt 0.9375 0 0
vt 0.96875 0 0
vt 0.90625 0 0
vt 0.875 0 0
vt 0.84375 0 0
vt 0.8125 0 0
vt 0.78125 0 0
vt 0.75 0 0
vt 0.71875 0 0
vt 0.6875 0 0
vt 0.65625 0 0
vt 0.625 0 0
vt 0.59375 0 0
vt 0.5625 0 0
vt 0.53125 0 0
vt 0.5 0 0
vt 0.46875 0 0
vt 0.4375 0 0
vt 0.40625 0 0
vt 0.375 0 0
vt 0.34375 0 0
vt 0.3125 0 0
vt 0.28125 0 0
vt 0.25 0 0
vt 0.21875 0 0
vt 0.1875 0 0
vt 0.15625 0 0
vt 0.125 0 0
vt 0.09375 0 0
vt 0.0625 0 0
vt 0.03125 0 0
vt 0 0 0
vt 0.96875 0.385496 0
vt 0.96875 0.614504 0
vt 0.9375 0.614504 0
vt 0.9375 0.385496 0
vt 0.03125 0.614504 0
vt 0 0.385496 0
vt 0.90625 0.385496 0
vt 0.90625 0.614504 0
vt 0.875 0.614504 0
vt 0.875 0.385496 0
vt 0.84375 0.614504 0
vt 0.84375 0.385496 0
vt 0.8125 0.614504 0
vt 0.8125 0.385496 0
vt 0.78125 0.614504 0
vt 0.78125 0.385496 0
vt 0.75 0.614504 0
vt 0.75 0.385496 0
vt 0.71875 0.614504 0
vt 0.71875 0.385496 0
vt 0.6875 0.614504 0
vt 0.6875 0.385496 0
vt 0.65625 0.614504 0
vt 0.65625 0.385496 0
vt 0.625 0.614504 0
vt 0.625 0.385496 0
vt 0.59375 0.614504 0
vt 0.59375 0.385496 0
vt 0.5625 0.614504 0
vt 0.5625 0.385496 0
vt 0.53125 0.614504 0
vt 0.53125 0.385496 0
vt 0.5 0.614504 0
vt 0.5 0.385496 0
vt 0.46875 0.614504 0
vt 0.46875 0.385496 0
vt 0.4375 0.614504 0
vt 0.4375 0.385496 0
vt 0.40625 0.614504 0
vt 0.40625 0.385496 0
vt 0.375 0.614504 0
vt 0.375 0.385496 0
vt 0.34375 0.614504 0
vt 0.34375 0.385496 0
vt 0.3125 0.614504 0
vt 0.3125 0.385496 0
vt 0.28125 0.614504 0
vt 0.28125 0.385496 0
vt 0.25 0.614504 0
vt 0.25 0.385496 0
vt 0.21875 0.614504 0
vt 0.21875 0.385496 0
vt 0.1875 0.614504 0
vt 0.1875 0.385496 0
vt 0.15625 0.614504 0
vt 0.15625 0.385496 0
vt 0.125 0.614504 0
vt 0.125 0.385496 0
vt 0.09375 0.614504 0
vt 0.09375 0.385496 0
vt 0.0625 0.614504 0
vt 0.0625 0.385496 0
vt 0.53125 1 0
vt 0.5 1 0
vt 0.25 1 0
vt 0.21875 1 0
vt 0.46875 0.385496 0
vt 0.5 0.614504 0
vt 0.21875 0.385496 0
vt 0.1875 0.614504 0
vt 0.78125 1 0
vt 0.75 1 0
vt 0.46875 1 0
vt 0.1875 1 0
vt 0.46875 0.385496 0
vt 0.4375 0.614504 0
vt 0.71875 1 0
vt 0.4375 1 0
vt 0.6875 0.385496 0
vt 0.71875 0.614504 0
vt 1 0.385496 0
vt 0.96875 0.385496 0
vt 1 0.614504 0
vt 0.15625 1 0
vt 0.6875 1 0
vt 0.03125 1 0
vt 0 1 0
vt 0.40625 1 0
vt 0.125 1 0
vt 0.96875 1 0
vt 0.9375 1 0
vt 0.65625 1 0
vt 0.375 1 0
vt 0.09375 1 0
vt 0.90625 1 0
vt 0.625 1 0
vt 0.34375 1 0
vt 0.0625 1 0
vt 0.875 1 0
vt 0.0625 0.385496 0
vt 0.59375 1 0
vt 0.3125 1 0
vt 0.3125 0.385496 0
vt 0.28125 0.614504 0
vt 0.84375 1 0
vt 1 0.614504 0
vt 0.5625 1 0
vt 0.28125 1 0
vt 1 1 0
vt 0.8125 1 0
vt 0.78125 0.385496 0
vt 0.8125 0.614504 0
vt 0.5 0.385496 0
vt 0.53125 0.614504 0
vt 0.999905 0.192748 0
vt 0.96875 0.192748 0
vt 1 0 0
vt 0.96875 0.807252 0
vt 0.999905 0.807252 0
vt 0.9375 0.192748 0
vt 0.9375 0.807252 0
vt 0.90625 0.192748 0
vt 0.90625 0.807252 0
vt 0.875 0.192748 0
vt 0.875 0.807252 0
vt 0.84375 0.192748 0
vt 0.84375 0.807252 0
vt 0.8125 0.192748 0
vt 0.8125 0.807252 0
vt 0.78125 0.192748 0
vt 0.78125 0.807252 0
vt 0.75 0.192748 0
vt 0.75 0.807252 0
vt 0.71875 0.192748 0
vt 0.71875 0.807252 0
vt 0.6875 0.192748 0
vt 0.6875 0.807252 0
vt 0.65625 0.192748 0
vt 0.65625 0.807252 0
vt 0.625 0.192748 0
vt 0.625 0.807252 0
vt 0.59375 0.192748 0
vt 0.59375 0.807252 0
vt 0.5625 0.192748 0
vt 0.5625 0.807252 0
vt 0.53125 0.192748 0
vt 0.53125 0.807252 0
vt 0.5 0.192748 0
vt 0.5 0.807252 0
vt 0.46875 0.192748 0
vt 0.46875 0.807252 0
vt 0.4375 0.192748 0
vt 0.4375 0.807252 0
vt 0.40625 0.192748 0
vt 0.40625 0.807252 0
vt 0.375 0.192748 0
vt 0.375 0.807252 0
vt 0.34375 0.192748 0
vt 0.34375 0.807252 0
vt 0.3125 0.192748 0
vt 0.3125 0.807252 0
vt 0.28125 0.192748 0
vt 0.28125 0.807252 0
vt 0.25 0.192748 0
vt 0.25 0.807252 0
vt 0.21875 0.192748 0
vt 0.21875 0.807252 0
vt 0.1875 0.192748 0
vt 0.1875 0.807252 0
vt 0.15625 0.192748 0
vt 0.15625 0.807252 0
vt 0.125 0.192748 0
vt 0.125 0.807252 0
vt 0.09375 0.192748 0
vt 0.09375 0.807252 0
vt 0.0625 0.192748 0
vt 0.0625 0.807252 0
vt 0.03125 0.192748 0
vt 0.03125 0.807252 0
vt 9.5E-05 0.192748 0
vt 9.5E-05 0.807252 0
vt 1.000106 0.192748 0
vt 0.96875 0.807252 0
vt 1.000106 0.807252 0
vt 0.9375 0.807252 0
vt 0.90625 0.192748 0
vt 0.90625 0.807252 0
vt 0.84375 0.192748 0
vt 0.84375 0.807252 0
vt 0.78125 0.807252 0
vt 0.75 0.192748 0
vt 0.75 0.807252 0
vt 0.71875 0.807252 0
vt 0.6875 0.192748 0
vt 0.6875 0.807252 0
vt 0.65625 0.807252 0
vt 0.625 0.192748 0
vt 0.625 0.807252 0
vt 0.5625 0.807252 0
vt 0.53125 0.807252 0
vt 0.46875 0.807252 0
vt 0.4375 0.192748 0
vt 0.4375 0.807252 0
vt 0.40625 0.807252 0
vt 0.34375 0.807252 0
vt 0.3125 0.807252 0
vt 0.28125 0.192748 0
vt 0.25 0.192748 0
vt 0.25 0.807252 0
vt 0.21875 0.192748 0
vt 0.1875 0.807252 0
vt 0.15625 0.807252 0
vt 0.125 0.192748 0
vt 0.125 0.807252 0
vt 0.09375 0.807252 0
vt 0.0625 0.192748 0
vt 0.0625 0.807252 0
vt 0.03125 0.807252 0
vt -0.000106 0.192748 0
vt -0.000106 0.807252 0
# 256 texture coords

usemtl defaultMaterial
s 1
f 250/1/1 1/2/1 6/3/1 253/4/1
f 17/5/2 9/6/2 258/6/2 274/5/2
f 25/7/2 17/5/2 274/5/2 282/7/2
f 33/8/2 25/7/2 282/7/2 290/8/2
f 41/9/2 33/8/2 290/8/2 298/9/2
f 49/10/2 41/9/2 298/9/2 306/10/2
f 57/11/2 49/10/2 306/10/2 314/11/2
f 65/12/2 57/11/2 314/11/2 322/12/2
f 73/13/2 65/12/2 322/12/2 330/13/2
f 81/14/2 73/13/2 330/13/2 338/14/2
f 89/15/2 81/14/2 338/14/2 346/15/2
f 97/16/2 89/15/2 346/15/2 354/16/2
f 105/17/2 97/16/2 354/16/2 362/17/2
f 113/18/2 105/17/2 362/17/2 370/18/2
f 121/19/2 113/18/2 370/18/2 378/19/2
f 129/20/2 121/19/2 378/19/2 386/20/2
f 137/21/2 129/20/2 386/20/2 394/21/2
f 145/22/2 137/21/2 394/21/2 402/22/2
f 153/23/2 145/22/2 402/22/2 410/23/2
f 161/24/2 153/23/2 410/23/2 418/24/2
f 169/25/2 161/24/2 418/24/2 426/25/2
f 177/26/2 169/25/2 426/25/2 434/26/2
f 185/27/2 177/26/2 434/26/2 442/27/2
f 193/28/2 185/27/2 442/27/2 450/28/2
f 201/29/2 193/28/2 450/28/2 458/29/2
f 209/30/2 201/29/2 458/29/2 466/30/2
f 217/31/2 209/30/2 466/30/2 474/31/2
f 225/32/2 217/31/2 474/31/2 482/32/2
f 233/33/2 225/32/2 482/32/2 490/33/2
f 241/34/2 233/33/2 490/33/2 498/34/2
f 249/35/2 241/34/2 498/34/2 506/35/2
f 2/36/2 249/35/2 506/35/2 261/36/2
f 257/37/3 270/38/3 278/39/3 273/40/3
f 505/1/4 510/41/4 265/3/4 262/42/4
f 281/43/5 286/44/5 294/45/5 289/46/5
f 289/46/6 294/45/6 302/47/6 297/48/6
f 297/48/7 302/47/7 310/49/7 305/50/7
f 305/50/8 310/49/8 318/51/8 313/52/8
f 313/52/9 318/51/9 326/53/9 321/54/9
f 321/54/10 326/53/10 334/55/10 329/56/10
f 329/56/11 334/55/11 342/57/11 337/58/11
f 337/58/12 342/57/12 350/59/12 345/60/12
f 345/60/13 350/59/13 358/61/13 353/62/13
f 353/62/14 358/61/14 366/63/14 361/64/14
f 361/64/15 366/63/15 374/65/15 369/66/15
f 369/66/16 374/65/16 382/67/16 377/68/16
f 377/68/1 382/67/1 390/69/1 385/70/1
f 385/70/17 390/69/17 398/71/17 393/72/17
f 393/72/18 398/71/18 406/73/18 401/74/18
f 401/74/19 406/73/19 414/75/19 409/76/19
f 409/76/20 414/75/20 422/77/20 417/78/20
f 417/78/21 422/77/21 430/79/21 425/80/21
f 425/80/22 430/79/22 438/81/22 433/82/22
f 433/82/23 438/81/23 446/83/23 441/84/23
f 441/84/24 446/83/24 454/85/24 449/86/24
f 449/86/25 454/85/25 462/87/25 457/88/25
f 457/88/26 462/87/26 470/89/26 465/90/26
f 465/90/27 470/89/27 478/91/27 473/92/27
f 473/92/28 478/91/28 486/93/28 481/94/28
f 481/94/29 486/93/29 494/95/29 489/96/29
f 489/96/30 494/95/30 502/97/30 497/98/30
f 497/98/31 502/97/31 510/41/31 505/1/31
f 273/40/32 278/39/32 286/44/32 281/43/32
f 126/99/33 134/100/33 389/100/33 381/99/33
f 58/52/24 66/54/24 69/53/24 61/51/24
f 198/101/33 206/102/33 461/102/33 453/101/33
f 130/70/34 138/103/34 141/71/34 133/104/34
f 202/105/11 210/90/11 213/106/11 205/87/11
f 62/107/33 70/108/33 325/108/33 317/107/33
f 134/100/33 142/109/33 397/109/33 389/100/33
f 66/54/25 74/56/25 77/55/25 69/53/25
f 206/102/33 214/110/33 469/110/33 461/102/33
f 138/111/3 146/74/3 149/112/3 141/71/3
f 210/90/12 218/92/12 221/91/12 213/89/12
f 70/108/33 78/113/33 333/113/33 325/108/33
f 142/109/33 150/114/33 405/114/33 397/109/33
f 74/56/26 82/115/26 85/57/26 77/116/26
f 1/117/17 10/118/17 13/38/17 6/119/17
f 214/110/33 222/120/33 477/120/33 469/110/33
f 146/74/32 154/76/32 157/75/32 149/73/32
f 218/92/13 226/94/13 229/93/13 221/91/13
f 78/113/33 86/121/33 341/121/33 333/113/33
f 254/122/33 5/123/33 266/123/33 509/122/33
f 150/114/33 158/124/33 413/124/33 405/114/33
f 82/58/27 90/60/27 93/59/27 85/57/27
f 222/120/33 230/125/33 485/125/33 477/120/33
f 154/76/5 162/78/5 165/77/5 157/75/5
f 14/126/33 22/127/33 277/127/33 269/126/33
f 226/94/14 234/96/14 237/95/14 229/93/14
f 86/121/33 94/128/33 349/128/33 341/121/33
f 18/40/19 26/43/19 29/44/19 21/39/19
f 158/124/33 166/129/33 421/129/33 413/124/33
f 90/60/28 98/62/28 101/61/28 93/59/28
f 230/125/33 238/130/33 493/130/33 485/125/33
f 162/78/6 170/80/6 173/79/6 165/77/6
f 22/127/33 30/131/33 285/131/33 277/127/33
f 234/96/15 242/98/15 245/97/15 237/95/15
f 94/128/33 102/132/33 357/132/33 349/128/33
f 26/43/20 34/46/20 37/45/20 29/44/20
f 166/129/33 174/133/33 429/133/33 421/129/33
f 98/62/29 106/64/29 109/63/29 101/61/29
f 238/130/33 246/134/33 501/134/33 493/130/33
f 170/80/7 178/82/7 181/81/7 173/79/7
f 30/131/33 38/135/33 293/135/33 285/131/33
f 242/136/16 250/1/16 253/4/16 245/97/16
f 102/132/33 110/137/33 365/137/33 357/132/33
f 34/46/21 42/48/21 45/47/21 37/45/21
f 174/133/33 182/138/33 437/138/33 429/133/33
f 106/64/30 114/66/30 117/65/30 109/63/30
f 246/134/33 254/122/33 509/122/33 501/134/33
f 178/139/8 186/84/8 189/140/8 181/81/8
f 38/135/33 46/141/33 301/141/33 293/135/33
f 262/117/34 265/142/34 270/38/34 257/37/34
f 110/137/33 118/143/33 373/143/33 365/137/33
f 42/48/22 50/50/22 53/49/22 45/47/22
f 182/138/33 190/144/33 445/144/33 437/138/33
f 114/66/31 122/68/31 125/67/31 117/65/31
f 5/145/33 14/126/33 269/126/33 266/145/33
f 186/84/9 194/86/9 197/85/9 189/83/9
f 46/141/33 54/146/33 309/146/33 301/141/33
f 10/37/18 18/40/18 21/39/18 13/38/18
f 118/143/33 126/99/33 381/99/33 373/143/33
f 50/50/23 58/147/23 61/51/23 53/148/23
f 190/144/33 198/101/33 453/101/33 445/144/33
f 122/68/4 130/149/4 133/69/4 125/150/4
f 194/86/10 202/88/10 205/87/10 197/85/10
f 54/146/33 62/107/33 317/107/33 309/146/33
f 10/118/35 1/117/35 3/151/35 12/152/35
f 12/152/36 3/151/36 4/153/36 11/6/36
f 11/6/37 4/153/37 2/153/37 9/6/37
f 6/119/38 13/38/38 15/154/38 8/155/38
f 8/155/39 15/154/39 16/126/39 7/145/39
f 7/145/40 16/126/40 14/126/40 5/145/40
f 18/40/41 10/37/41 12/152/41 20/156/41
f 20/156/42 12/152/42 11/6/42 19/5/42
f 19/5/43 11/6/43 9/6/43 17/5/43
f 13/38/44 21/39/44 23/157/44 15/154/44
f 15/154/45 23/157/45 24/127/45 16/126/45
f 16/126/46 24/127/46 22/127/46 14/126/46
f 26/43/47 18/40/47 20/156/47 28/158/47
f 28/158/48 20/156/48 19/5/48 27/7/48
f 27/7/49 19/5/49 17/5/49 25/7/49
f 21/39/50 29/44/50 31/159/50 23/157/50
f 23/157/51 31/159/51 32/131/51 24/127/51
f 24/127/52 32/131/52 30/131/52 22/127/52
f 34/46/53 26/43/53 28/158/53 36/160/53
f 36/160/54 28/158/54 27/7/54 35/8/54
f 35/8/55 27/7/55 25/7/55 33/8/55
f 29/44/56 37/45/56 39/161/56 31/159/56
f 31/159/57 39/161/57 40/135/57 32/131/57
f 32/131/58 40/135/58 38/135/58 30/131/58
f 42/48/59 34/46/59 36/160/59 44/162/59
f 44/162/60 36/160/60 35/8/60 43/9/60
f 43/9/61 35/8/61 33/8/61 41/9/61
f 37/45/62 45/47/62 47/163/62 39/161/62
f 39/161/63 47/163/63 48/141/63 40/135/63
f 40/135/64 48/141/64 46/141/64 38/135/64
f 50/50/65 42/48/65 44/162/65 52/164/65
f 52/164/66 44/162/66 43/9/66 51/10/66
f 51/10/67 43/9/67 41/9/67 49/10/67
f 45/47/68 53/49/68 55/165/68 47/163/68
f 47/163/69 55/165/69 56/146/69 48/141/69
f 48/141/70 56/146/70 54/146/70 46/141/70
f 58/147/71 50/50/71 52/164/71 60/166/71
f 60/166/72 52/164/72 51/10/72 59/11/72
f 59/11/73 51/10/73 49/10/73 57/11/73
f 53/148/74 61/51/74 63/167/74 55/165/74
f 55/165/75 63/167/75 64/107/75 56/146/75
f 56/146/76 64/107/76 62/107/76 54/146/76
f 66/54/77 58/52/77 60/166/77 68/168/77
f 68/168/78 60/166/78 59/11/78 67/12/78
f 67/12/79 59/11/79 57/11/79 65/12/79
f 61/51/80 69/53/80 71/169/80 63/167/80
f 63/167/81 71/169/81 72/108/81 64/107/81
f 64/107/82 72/108/82 70/108/82 62/107/82
f 74/56/83 66/54/83 68/168/83 76/170/83
f 76/170/84 68/168/84 67/12/84 75/13/84
f 75/13/85 67/12/85 65/12/85 73/13/85
f 69/53/86 77/55/86 79/171/86 71/169/86
f 71/169/87 79/171/87 80/113/87 72/108/87
f 72/108/88 80/113/88 78/113/88 70/108/88
f 82/115/89 74/56/89 76/170/89 84/172/89
f 84/172/90 76/170/90 75/13/90 83/14/90
f 83/14/91 75/13/91 73/13/91 81/14/91
f 77/116/92 85/57/92 87/173/92 79/171/92
f 79/171/93 87/173/93 88/121/93 80/113/93
f 80/113/94 88/121/94 86/121/94 78/113/94
f 90/60/95 82/58/95 84/172/95 92/174/95
f 92/174/96 84/172/96 83/14/96 91/15/96
f 91/15/97 83/14/97 81/14/97 89/15/97
f 85/57/98 93/59/98 95/175/98 87/173/98
f 87/173/99 95/175/99 96/128/99 88/121/99
f 88/121/100 96/128/100 94/128/100 86/121/100
f 98/62/101 90/60/101 92/174/101 100/176/101
f 100/176/102 92/174/102 91/15/102 99/16/102
f 99/16/103 91/15/103 89/15/103 97/16/103
f 93/59/104 101/61/104 103/177/104 95/175/104
f 95/175/105 103/177/105 104/132/105 96/128/105
f 96/128/106 104/132/106 102/132/106 94/128/106
f 106/64/107 98/62/107 100/176/107 108/178/107
f 108/178/108 100/176/108 99/16/108 107/17/108
f 107/17/109 99/16/109 97/16/109 105/17/109
f 101/61/110 109/63/110 111/179/110 103/177/110
f 103/177/111 111/179/111 112/137/111 104/132/111
f 104/132/112 112/137/112 110/137/112 102/132/112
f 114/66/113 106/64/113 108/178/113 116/180/113
f 116/180/114 108/178/114 107/17/114 115/18/114
f 115/18/115 107/17/115 105/17/115 113/18/115
f 109/63/116 117/65/116 119/181/116 111/179/116
f 111/179/117 119/181/117 120/143/117 112/137/117
f 112/137/118 120/143/118 118/143/118 110/137/118
f 122/68/119 114/66/119 116/180/119 124/182/119
f 124/182/120 116/180/120 115/18/120 123/19/120
f 123/19/121 115/18/121 113/18/121 121/19/121
f 117/65/122 125/67/122 127/183/122 119/181/122
f 119/181/123 127/183/123 128/99/123 120/143/123
f 120/143/124 128/99/124 126/99/124 118/143/124
f 130/149/125 122/68/125 124/182/125 132/184/125
f 132/184/126 124/182/126 123/19/126 131/20/126
f 131/20/127 123/19/127 121/19/127 129/20/127
f 125/150/128 133/69/128 135/185/128 127/183/128
f 127/183/129 135/185/129 136/100/129 128/99/129
f 128/99/130 136/100/130 134/100/130 126/99/130
f 138/103/131 130/70/131 132/184/131 140/186/131
f 140/186/132 132/184/132 131/20/132 139/21/132
f 139/21/133 131/20/133 129/20/133 137/21/133
f 133/104/134 141/71/134 143/187/134 135/185/134
f 135/185/135 143/187/135 144/109/135 136/100/135
f 136/100/136 144/109/136 142/109/136 134/100/136
f 146/74/137 138/111/137 140/186/137 148/188/137
f 148/188/138 140/186/138 139/21/138 147/22/138
f 147/22/139 139/21/139 137/21/139 145/22/139
f 141/71/140 149/112/140 151/189/140 143/187/140
f 143/187/141 151/189/141 152/114/141 144/109/141
f 144/109/142 152/114/142 150/114/142 142/109/142
f 154/76/143 146/74/143 148/188/143 156/190/143
f 156/190/144 148/188/144 147/22/144 155/23/144
f 155/23/145 147/22/145 145/22/145 153/23/145
f 149/73/146 157/75/146 159/191/146 151/189/146
f 151/189/147 159/191/147 160/124/147 152/114/147
f 152/114/148 160/124/148 158/124/148 150/114/148
f 162/78/149 154/76/149 156/190/149 164/192/149
f 164/192/150 156/190/150 155/23/150 163/24/150
f 163/24/151 155/23/151 153/23/151 161/24/151
f 157/75/152 165/77/152 167/193/152 159/191/152
f 159/191/153 167/193/153 168/129/153 160/124/153
f 160/124/154 168/129/154 166/129/154 158/124/154
f 170/80/155 162/78/155 164/192/155 172/194/155
f 172/194/156 164/192/156 163/24/156 171/25/156
f 171/25/157 163/24/157 161/24/157 169/25/157
f 165/77/158 173/79/158 175/195/158 167/193/158
f 167/193/159 175/195/159 176/133/159 168/129/159
f 168/129/160 176/133/160 174/133/160 166/129/160
f 178/82/161 170/80/161 172/194/161 180/196/161
f 180/196/162 172/194/162 171/25/162 179/26/162
f 179/26/163 171/25/163 169/25/163 177/26/163
f 173/79/164 181/81/164 183/197/164 175/195/164
f 175/195/165 183/197/165 184/138/165 176/133/165
f 176/133/166 184/138/166 182/138/166 174/133/166
f 186/84/167 178/139/167 180/196/167 188/198/167
f 188/198/168 180/196/168 179/26/168 187/27/168
f 187/27/169 179/26/169 177/26/169 185/27/169
f 181/81/170 189/140/170 191/199/170 183/197/170
f 183/197/171 191/199/171 192/144/171 184/138/171
f 184/138/172 192/144/172 190/144/172 182/138/172
f 194/86/173 186/84/173 188/198/173 196/200/173
f 196/200/174 188/198/174 187/27/174 195/28/174
f 195/28/175 187/27/175 185/27/175 193/28/175
f 189/83/176 197/85/176 199/201/176 191/199/176
f 191/199/177 199/201/177 200/101/177 192/144/177
f 192/144/178 200/101/178 198/101/178 190/144/178
f 202/88/179 194/86/179 196/200/179 204/202/179
f 204/202/180 196/200/180 195/28/180 203/29/180
f 203/29/181 195/28/181 193/28/181 201/29/181
f 197/85/182 205/87/182 207/203/182 199/201/182
f 199/201/183 207/203/183 208/102/183 200/101/183
f 200/101/184 208/102/184 206/102/184 198/101/184
f 210/90/185 202/105/185 204/202/185 212/204/185
f 212/204/186 204/202/186 203/29/186 211/30/186
f 211/30/187 203/29/187 201/29/187 209/30/187
f 205/87/188 213/106/188 215/205/188 207/203/188
f 207/203/189 215/205/189 216/110/189 208/102/189
f 208/102/190 216/110/190 214/110/190 206/102/190
f 218/92/191 210/90/191 212/204/191 220/206/191
f 220/206/192 212/204/192 211/30/192 219/31/192
f 219/31/193 211/30/193 209/30/193 217/31/193
f 213/89/194 221/91/194 223/207/194 215/205/194
f 215/205/195 223/207/195 224/120/195 216/110/195
f 216/110/196 224/120/196 222/120/196 214/110/196
f 226/94/197 218/92/197 220/206/197 228/208/197
f 228/208/198 220/206/198 219/31/198 227/32/198
f 227/32/199 219/31/199 217/31/199 225/32/199
f 221/91/200 229/93/200 231/209/200 223/207/200
f 223/207/201 231/209/201 232/125/201 224/120/201
f 224/120/202 232/125/202 230/125/202 222/120/202
f 234/96/203 226/94/203 228/208/203 236/210/203
f 236/210/204 228/208/204 227/32/204 235/33/204
f 235/33/205 227/32/205 225/32/205 233/33/205
f 229/93/206 237/95/206 239/211/206 231/209/206
f 231/209/207 239/211/207 240/130/207 232/125/207
f 232/125/208 240/130/208 238/130/208 230/125/208
f 242/98/209 234/96/209 236/210/209 244/212/209
f 244/212/210 236/210/210 235/33/210 243/34/210
f 243/34/211 235/33/211 233/33/211 241/34/211
f 237/95/212 245/97/212 247/213/212 239/211/212
f 239/211/213 247/213/213 248/134/213 240/130/213
f 240/130/214 248/134/214 246/134/214 238/130/214
f 250/1/215 242/136/215 244/212/215 252/214/215
f 252/214/216 244/212/216 243/34/216 251/35/216
f 251/35/217 243/34/217 241/34/217 249/35/217
f 245/97/218 253/4/218 255/215/218 247/213/218
f 247/213/219 255/215/219 256/122/219 248/134/219
f 248/134/220 256/122/220 254/122/220 246/134/220
f 1/2/221 250/1/221 252/214/221 3/216/221
f 3/216/222 252/214/222 251/35/222 4/36/222
f 4/36/223 251/35/223 249/35/223 2/36/223
f 253/4/224 6/3/224 8/217/224 255/215/224
f 255/215/225 8/217/225 7/123/225 256/122/225
f 256/122/226 7/123/226 5/123/226 254/122/226
f 258/6/133 261/153/133 263/153/133 260/6/133
f 260/6/132 263/153/132 264/218/132 259/152/132
f 259/152/131 264/218/131 262/117/131 257/37/131
f 266/145/136 269/126/136 271/126/136 268/145/136
f 268/145/135 271/126/135 272/219/135 267/220/135
f 267/220/134 272/219/134 270/38/134 265/142/134
f 274/5/139 258/6/139 260/6/139 276/5/139
f 276/5/138 260/6/138 259/152/138 275/156/138
f 275/156/137 259/152/137 257/37/137 273/40/137
f 269/126/142 277/127/142 279/127/142 271/126/142
f 271/126/141 279/127/141 280/221/141 272/219/141
f 272/219/140 280/221/140 278/39/140 270/38/140
f 282/7/145 274/5/145 276/5/145 284/7/145
f 284/7/144 276/5/144 275/156/144 283/222/144
f 283/222/143 275/156/143 273/40/143 281/43/143
f 277/127/148 285/131/148 287/131/148 279/127/148
f 279/127/147 287/131/147 288/223/147 280/221/147
f 280/221/146 288/223/146 286/44/146 278/39/146
f 290/8/151 282/7/151 284/7/151 292/8/151
f 292/8/150 284/7/150 283/222/150 291/160/150
f 291/160/149 283/222/149 281/43/149 289/46/149
f 285/131/154 293/135/154 295/135/154 287/131/154
f 287/131/153 295/135/153 296/161/153 288/223/153
f 288/223/152 296/161/152 294/45/152 286/44/152
f 298/9/157 290/8/157 292/8/157 300/9/157
f 300/9/156 292/8/156 291/160/156 299/224/156
f 299/224/155 291/160/155 289/46/155 297/48/155
f 293/135/160 301/141/160 303/141/160 295/135/160
f 295/135/159 303/141/159 304/225/159 296/161/159
f 296/161/158 304/225/158 302/47/158 294/45/158
f 306/10/163 298/9/163 300/9/163 308/10/163
f 308/10/162 300/9/162 299/224/162 307/164/162
f 307/164/161 299/224/161 297/48/161 305/50/161
f 301/141/166 309/146/166 311/146/166 303/141/166
f 303/141/165 311/146/165 312/165/165 304/225/165
f 304/225/164 312/165/164 310/49/164 302/47/164
f 314/11/169 306/10/169 308/10/169 316/11/169
f 316/11/168 308/10/168 307/164/168 315/166/168
f 315/166/167 307/164/167 305/50/167 313/52/167
f 309/146/172 317/107/172 319/107/172 311/146/172
f 311/146/171 319/107/171 320/226/171 312/165/171
f 312/165/170 320/226/170 318/51/170 310/49/170
f 322/12/175 314/11/175 316/11/175 324/12/175
f 324/12/174 316/11/174 315/166/174 323/227/174
f 323/227/173 315/166/173 313/52/173 321/54/173
f 317/107/178 325/108/178 327/108/178 319/107/178
f 319/107/177 327/108/177 328/228/177 320/226/177
f 320/226/176 328/228/176 326/53/176 318/51/176
f 330/13/181 322/12/181 324/12/181 332/13/181
f 332/13/180 324/12/180 323/227/180 331/170/180
f 331/170/179 323/227/179 321/54/179 329/56/179
f 325/108/184 333/113/184 335/113/184 327/108/184
f 327/108/183 335/113/183 336/229/183 328/228/183
f 328/228/182 336/229/182 334/55/182 326/53/182
f 338/14/187 330/13/187 332/13/187 340/14/187
f 340/14/186 332/13/186 331/170/186 339/230/186
f 339/230/185 331/170/185 329/56/185 337/58/185
f 333/113/190 341/121/190 343/121/190 335/113/190
f 335/113/189 343/121/189 344/231/189 336/229/189
f 336/229/188 344/231/188 342/57/188 334/55/188
f 346/15/193 338/14/193 340/14/193 348/15/193
f 348/15/192 340/14/192 339/230/192 347/174/192
f 347/174/191 339/230/191 337/58/191 345/60/191
f 341/121/196 349/128/196 351/128/196 343/121/196
f 343/121/195 351/128/195 352/232/195 344/231/195
f 344/231/194 352/232/194 350/59/194 342/57/194
f 354/16/199 346/15/199 348/15/199 356/16/199
f 356/16/198 348/15/198 347/174/198 355/233/198
f 355/233/197 347/174/197 345/60/197 353/62/197
f 349/128/202 357/132/202 359/132/202 351/128/202
f 351/128/201 359/132/201 360/234/201 352/232/201
f 352/232/200 360/234/200 358/61/200 350/59/200
f 362/17/205 354/16/205 356/16/205 364/17/205
f 364/17/204 356/16/204 355/233/204 363/178/204
f 363/178/203 355/233/203 353/62/203 361/64/203
f 357/132/208 365/137/208 367/137/208 359/132/208
f 359/132/207 367/137/207 368/179/207 360/234/207
f 360/234/206 368/179/206 366/63/206 358/61/206
f 370/18/211 362/17/211 364/17/211 372/18/211
f 372/18/210 364/17/210 363/178/210 371/180/210
f 371/180/209 363/178/209 361/64/209 369/66/209
f 365/137/214 373/143/214 375/143/214 367/137/214
f 367/137/213 375/143/213 376/235/213 368/179/213
f 368/179/212 376/235/212 374/65/212 366/63/212
f 378/19/217 370/18/217 372/18/217 380/19/217
f 380/19/216 372/18/216 371/180/216 379/182/216
f 379/182/215 371/180/215 369/66/215 377/68/215
f 373/143/220 381/99/220 383/99/220 375/143/220
f 375/143/219 383/99/219 384/236/219 376/235/219
f 376/235/218 384/236/218 382/67/218 374/65/218
f 386/20/223 378/19/223 380/19/223 388/20/223
f 388/20/222 380/19/222 379/182/222 387/184/222
f 387/184/221 379/182/221 377/68/221 385/70/221
f 381/99/226 389/100/226 391/100/226 383/99/226
f 383/99/225 391/100/225 392/185/225 384/236/225
f 384/236/224 392/185/224 390/69/224 382/67/224
f 394/21/37 386/20/37 388/20/37 396/21/37
f 396/21/36 388/20/36 387/184/36 395/186/36
f 395/186/35 387/184/35 385/70/35 393/72/35
f 389/100/40 397/109/40 399/109/40 391/100/40
f 391/100/39 399/109/39 400/237/39 392/185/39
f 392/185/38 400/237/38 398/71/38 390/69/38
f 402/22/43 394/21/43 396/21/43 404/22/43
f 404/22/42 396/21/42 395/186/42 403/238/42
f 403/238/41 395/186/41 393/72/41 401/74/41
f 397/109/46 405/114/46 407/114/46 399/109/46
f 399/109/45 407/114/45 408/239/45 400/237/45
f 400/237/44 408/239/44 406/73/44 398/71/44
f 410/23/49 402/22/49 404/22/49 412/23/49
f 412/23/48 404/22/48 403/238/48 411/190/48
f 411/190/47 403/238/47 401/74/47 409/76/47
f 405/114/52 413/124/52 415/124/52 407/114/52
f 407/114/51 415/124/51 416/240/51 408/239/51
f 408/239/50 416/240/50 414/75/50 406/73/50
f 418/24/55 410/23/55 412/23/55 420/24/55
f 420/24/54 412/23/54 411/190/54 419/192/54
f 419/192/53 411/190/53 409/76/53 417/78/53
f 413/124/58 421/129/58 423/129/58 415/124/58
f 415/124/57 423/129/57 424/193/57 416/240/57
f 416/240/56 424/193/56 422/77/56 414/75/56
f 426/25/61 418/24/61 420/24/61 428/25/61
f 428/25/60 420/24/60 419/192/60 427/194/60
f 427/194/59 419/192/59 417/78/59 425/80/59
f 421/129/64 429/133/64 431/133/64 423/129/64
f 423/129/63 431/133/63 432/241/63 424/193/63
f 424/193/62 432/241/62 430/79/62 422/77/62
f 434/26/67 426/25/67 428/25/67 436/26/67
f 436/26/66 428/25/66 427/194/66 435/196/66
f 435/196/65 427/194/65 425/80/65 433/82/65
f 429/133/70 437/138/70 439/138/70 431/133/70
f 431/133/69 439/138/69 440/242/69 432/241/69
f 432/241/68 440/242/68 438/81/68 430/79/68
f 442/27/73 434/26/73 436/26/73 444/27/73
f 444/27/72 436/26/72 435/196/72 443/243/72
f 443/243/71 435/196/71 433/82/71 441/84/71
f 437/138/76 445/144/76 447/144/76 439/138/76
f 439/138/75 447/144/75 448/199/75 440/242/75
f 440/242/74 448/199/74 446/83/74 438/81/74
f 450/28/79 442/27/79 444/27/79 452/28/79
f 452/28/78 444/27/78 443/243/78 451/244/78
f 451/244/77 443/243/77 441/84/77 449/86/77
f 445/144/82 453/101/82 455/101/82 447/144/82
f 447/144/81 455/101/81 456/245/81 448/199/81
f 448/199/80 456/245/80 454/85/80 446/83/80
f 458/29/85 450/28/85 452/28/85 460/29/85
f 460/29/84 452/28/84 451/244/84 459/246/84
f 459/246/83 451/244/83 449/86/83 457/88/83
f 453/101/88 461/102/88 463/102/88 455/101/88
f 455/101/87 463/102/87 464/203/87 456/245/87
f 456/245/86 464/203/86 462/87/86 454/85/86
f 466/30/91 458/29/91 460/29/91 468/30/91
f 468/30/90 460/29/90 459/246/90 467/204/90
f 467/204/89 459/246/89 457/88/89 465/90/89
f 461/102/94 469/110/94 471/110/94 463/102/94
f 463/102/93 471/110/93 472/247/93 464/203/93
f 464/203/92 472/247/92 470/89/92 462/87/92
f 474/31/97 466/30/97 468/30/97 476/31/97
f 476/31/96 468/30/96 467/204/96 475/206/96
f 475/206/95 467/204/95 465/90/95 473/92/95
f 469/110/100 477/120/100 479/120/100 471/110/100
f 471/110/99 479/120/99 480/248/99 472/247/99
f 472/247/98 480/248/98 478/91/98 470/89/98
f 482/32/103 474/31/103 476/31/103 484/32/103
f 484/32/102 476/31/102 475/206/102 483/249/102
f 483/249/101 475/206/101 473/92/101 481/94/101
f 477/120/106 485/125/106 487/125/106 479/120/106
f 479/120/105 487/125/105 488/250/105 480/248/105
f 480/248/104 488/250/104 486/93/104 478/91/104
f 490/33/109 482/32/109 484/32/109 492/33/109
f 492/33/108 484/32/108 483/249/108 491/210/108
f 491/210/107 483/249/107 481/94/107 489/96/107
f 485/125/112 493/130/112 495/130/112 487/125/112
f 487/125/111 495/130/111 496/251/111 488/250/111
f 488/250/110 496/251/110 494/95/110 486/93/110
f 498/34/115 490/33/115 492/33/115 500/34/115
f 500/34/114 492/33/114 491/210/114 499/252/114
f 499/252/113 491/210/113 489/96/113 497/98/113
f 493/130/118 501/134/118 503/134/118 495/130/118
f 495/130/117 503/134/117 504/253/117 496/251/117
f 496/251/116 504/253/116 502/97/116 494/95/116
f 506/35/121 498/34/121 500/34/121 508/35/121
f 508/35/120 500/34/120 499/252/120 507/214/120
f 507/214/119 499/252/119 497/98/119 505/1/119
f 501/134/124 509/122/124 511/122/124 503/134/124
f 503/134/123 511/122/123 512/254/123 504/253/123
f 504/253/122 512/254/122 510/41/122 502/97/122
f 261/36/127 506/35/127 508/35/127 263/36/127
f 263/36/126 508/35/126 507/214/126 264/255/126
f 264/255/125 507/214/125 505/1/125 262/42/125
f 509/122/130 266/123/130 268/123/130 511/122/130
f 511/122/129 268/123/129 267/256/129 512/254/129
f 512/254/128 267/256/128 265/3/128 510/41/128
f 9/6/2 2/153/2 261/153/2 258/6/2
#512 polygons

