# File generated by ImageToStl.com - Free Image and 3D model conversion tools

mtllib rotation_gizmo.mtl

o obj1
v -0.00017822 0.01329712 0.015
v 0.00017822 0.01304162 0.01759414
v -0.00017822 0.01304162 0.01759414
v -0.00077822 0.0124503 0.01252348
v -0.00077822 0.01158123 0.0102029
v -0.00077822 0.01172793 0.01014213
v -0.00077822 0.01042283 0.00803569
v -0.00077822 0.01055486 0.00794747
v -0.00077822 0.00886389 0.00613611
v -0.00077822 0.00897617 0.00602383
v -0.00077822 0.00705253 0.00444514
v -0.00077822 0.00696431 0.00457717
v -0.00077822 0.00485787 0.00327207
v -0.00077822 0.0047971 0.00341877
v -0.00077822 0.00247652 0.0025497
v -0.00077822 0.00244554 0.00270544
v -0.00077822 0 0.00230578
v -0.00077822 0 0.00246457
v -0.00077822 -0.00244554 0.00270544
v -0.00077822 -0.00247652 0.0025497
v -0.00077822 -0.0047971 0.00341877
v -0.00077822 -0.00485787 0.00327207
v -0.00077822 -0.00696431 0.00457717
v -0.00077822 -0.00705253 0.00444514
v -0.00077822 -0.00886389 0.00613611
v -0.00077822 -0.00897617 0.00602383
v -0.00077822 -0.01055486 0.00794747
v -0.00077822 -0.01042283 0.00803569
v -0.00077822 -0.01172793 0.01014213
v -0.00077822 -0.01158123 0.0102029
v -0.00077822 -0.0124503 0.01252348
v -0.00077822 -0.01229457 0.01255446
v -0.00077822 -0.01269422 0.015
v -0.00077822 -0.01253543 0.015
v -0.00077822 -0.01229457 0.01744554
v -0.00077822 -0.0124503 0.01747652
v -0.00077822 -0.01158123 0.0197971
v -0.00077822 -0.01172793 0.01985787
v -0.00077822 -0.01042283 0.02196431
v -0.00077822 -0.01055486 0.02205253
v -0.00077822 -0.00886389 0.02386389
v -0.00077822 -0.00897617 0.02397617
v -0.00077822 -0.00705253 0.02555486
v -0.00077822 -0.00696431 0.02542283
v -0.00077822 -0.00485787 0.02672793
v -0.00077822 -0.0047971 0.02658123
v -0.00077822 -0.00247652 0.0274503
v -0.00077822 -0.00244554 0.02729457
v -0.00077822 0 0.02769422
v -0.00077822 0 0.02753543
v -0.00077822 0.00244554 0.02729457
v -0.00077822 0.00247652 0.0274503
v -0.00077822 0.0047971 0.02658123
v -0.00077822 0.00485787 0.02672793
v -0.00077822 0.00696431 0.02542283
v -0.00077822 0.00705253 0.02555486
v -0.00077822 0.00886389 0.02386389
v -0.00077822 0.00897617 0.02397617
v -0.00077822 0.01055486 0.02205253
v -0.00077822 0.01042283 0.02196431
v -0.00077822 0.01172793 0.01985787
v -0.00077822 0.01158123 0.0197971
v -0.00077822 0.0124503 0.01747652
v -0.00077822 0.01229457 0.01744554
v -0.00077822 0.01269422 0.015
v -0.00077822 0.01253543 0.015
v 0.00017822 0.01170325 0.01267208
v -0.00017822 0.01102422 0.01043362
v -0.00017822 0.01170325 0.01267208
v 0.00017822 0.01170325 0.01732792
v -0.00017822 0.01193253 0.015
v -0.00017822 0.01170325 0.01732792
v 0.00017822 0.00992153 0.00837064
v -0.00017822 0.00843757 0.00656243
v -0.00017822 0.00992153 0.00837064
v 0.00017822 0.00843757 0.00656243
v -0.00017822 0.00662936 0.00507847
v 0.00017822 0.00662936 0.00507847
v -0.00017822 0.00456638 0.00397578
v 0.00017822 0.00456638 0.00397578
v -0.00017822 0.00232792 0.00329675
v 0.00017822 0.00232792 0.00329675
v -0.00017822 0 0.00306747
v 0.00017822 0 0.00306747
v -0.00017822 -0.00232792 0.00329675
v 0.00017822 -0.00232792 0.00329675
v -0.00017822 -0.00456638 0.00397578
v 0.00017822 -0.00456638 0.00397578
v -0.00017822 -0.00662936 0.00507847
v 0.00017822 -0.00662936 0.00507847
v -0.00017822 -0.00843757 0.00656243
v 0.00017822 -0.00843757 0.00656243
v -0.00017822 -0.00992153 0.00837064
v 0.00017822 -0.00992153 0.00837064
v -0.00017822 -0.01102422 0.01043362
v 0.00017822 -0.01102422 0.01043362
v -0.00017822 -0.01170325 0.01267208
v 0.00017822 -0.01170325 0.01267208
v -0.00017822 -0.01193253 0.015
v 0.00017822 -0.01193253 0.015
v -0.00017822 -0.01170325 0.01732792
v 0.00017822 -0.01170325 0.01732792
v -0.00017822 -0.01102422 0.01956638
v 0.00017822 -0.01102422 0.01956638
v -0.00017822 -0.00992153 0.02162936
v 0.00017822 -0.00992153 0.02162936
v -0.00017822 -0.00843757 0.02343757
v 0.00017822 -0.00843757 0.02343757
v -0.00017822 -0.00662936 0.02492153
v 0.00017822 -0.00662936 0.02492153
v -0.00017822 -0.00456638 0.02602422
v 0.00017822 -0.00456638 0.02602422
v -0.00017822 -0.00232792 0.02670325
v 0.00017822 -0.00232792 0.02670325
v -0.00017822 0 0.02693253
v 0.00017822 0 0.02693253
v -0.00017822 0.00232792 0.02670325
v 0.00017822 0.00232792 0.02670325
v -0.00017822 0.00456638 0.02602422
v 0.00017822 0.00456638 0.02602422
v -0.00017822 0.00662936 0.02492153
v 0.00017822 0.00662936 0.02492153
v -0.00017822 0.00843757 0.02343757
v 0.00017822 0.00843757 0.02343757
v -0.00017822 0.00992153 0.02162936
v 0.00017822 0.00992153 0.02162936
v -0.00017822 0.01102422 0.01956638
v 0.00017822 0.01102422 0.01956638
v 0.00017822 0.01102422 0.01043362
v 0.00077822 -0.01269422 0.015
v 0.00077822 -0.01229457 0.01255446
v 0.00077822 -0.0124503 0.01252348
v -0.00017822 0 0.00170288
v 0.00017822 0.00259414 0.00195838
v -0.00017822 0.00259414 0.00195838
v 0.00077822 0 0.02769422
v 0.00077822 0.00244554 0.02729457
v 0.00077822 0 0.02753543
v -0.00017822 -0.01304162 0.01759414
v 0.00017822 -0.01329712 0.015
v -0.00017822 -0.01329712 0.015
v -0.00017822 0.00508859 0.02728494
v 0.00017822 0.00259414 0.02804163
v -0.00017822 0.00259414 0.02804163
v 0.00077822 0 0.00230578
v 0.00077822 0.00244554 0.00270544
v 0.00077822 0.00247652 0.0025497
v 0.00077822 -0.01229457 0.01744554
v 0.00077822 -0.01253543 0.015
v -0.00017822 -0.00259414 0.00195838
v 0.00017822 0 0.00170288
v 0.00077822 0.00247652 0.0274503
v 0.00077822 0.0047971 0.02658123
v -0.00017822 -0.01228494 0.02008859
v 0.00017822 -0.01304162 0.01759414
v -0.00017822 0.00738748 0.02605616
v 0.00017822 0.00508859 0.02728494
v 0.00077822 -0.00244554 0.00270544
v 0.00077822 0 0.00246457
v 0.00077822 -0.0124503 0.01747652
v 0.00077822 -0.01158123 0.0197971
v -0.00017822 -0.00508859 0.00271506
v 0.00017822 -0.00259414 0.00195838
v -0.00017822 0.01304162 0.01240586
v 0.00017822 0.01329712 0.015
v 0.00077822 0.00485787 0.02672793
v 0.00077822 0.00696431 0.02542283
v -0.00017822 -0.01105615 0.02238749
v 0.00017822 -0.01228494 0.02008859
v -0.00017822 0.00940248 0.02440249
v 0.00017822 0.00738748 0.02605616
v 0.00077822 -0.00247652 0.0025497
v 0.00077822 -0.0047971 0.00341877
v 0.00077822 0.01269422 0.015
v 0.00077822 0.01229457 0.01744554
v 0.00077822 0.0124503 0.01747652
v 0.00077822 -0.01172793 0.01985787
v 0.00077822 -0.01042283 0.02196431
v -0.00017822 -0.00738748 0.00394385
v 0.00017822 -0.00508859 0.00271506
v 0.00077822 0.00705253 0.02555486
v 0.00077822 0.00886389 0.02386389
v -0.00017822 -0.00940248 0.02440249
v 0.00017822 -0.01105615 0.02238749
v 0.00077822 0.0124503 0.01252348
v 0.00077822 0.01158123 0.0102029
v 0.00077822 0.01229457 0.01255446
v -0.00017822 0.01105615 0.02238749
v 0.00017822 0.00940248 0.02440249
v 0.00077822 -0.00485787 0.00327207
v 0.00077822 -0.00696431 0.00457717
v -0.00017822 0.01105615 0.00761252
v 0.00017822 0.01228494 0.00991141
v -0.00017822 0.01228494 0.00991141
v 0.00077822 -0.01055486 0.02205253
v 0.00077822 -0.00886389 0.02386389
v -0.00017822 -0.00940248 0.00559752
v 0.00017822 -0.00738748 0.00394385
v 0.00077822 0.01055486 0.02205253
v 0.00077822 0.00897617 0.02397617
v -0.00017822 -0.00738748 0.02605616
v 0.00017822 -0.00940248 0.02440249
v 0.00077822 0.01172793 0.01014213
v 0.00077822 0.01042283 0.00803569
v -0.00017822 0.01228494 0.02008859
v 0.00017822 0.01105615 0.02238749
v 0.00077822 -0.00705253 0.00444514
v 0.00077822 -0.00886389 0.00613611
v -0.00017822 0.00940248 0.00559752
v 0.00017822 0.01105615 0.00761252
v 0.00077822 -0.00705253 0.02555486
v 0.00077822 -0.00897617 0.02397617
v -0.00017822 -0.01105615 0.00761252
v 0.00017822 -0.00940248 0.00559752
v 0.00077822 0.01172793 0.01985787
v 0.00077822 0.01042283 0.02196431
v -0.00017822 -0.00508859 0.02728494
v 0.00017822 -0.00738748 0.02605616
v 0.00077822 0.00897617 0.00602383
v 0.00077822 0.01055486 0.00794747
v 0.00017822 0.01228494 0.02008859
v 0.00077822 -0.00897617 0.00602383
v 0.00077822 -0.01042283 0.00803569
v -0.00017822 0.00738748 0.00394385
v 0.00017822 0.00940248 0.00559752
v 0.00077822 -0.00485787 0.02672793
v 0.00077822 -0.00696431 0.02542283
v -0.00017822 -0.01228494 0.00991141
v 0.00017822 -0.01105615 0.00761252
v 0.00077822 0.01158123 0.0197971
v -0.00017822 -0.00259414 0.02804163
v 0.00017822 -0.00508859 0.02728494
v 0.00077822 0.00705253 0.00444514
v 0.00077822 0.00886389 0.00613611
v 0.00017822 0.01193253 0.015
v 0.00077822 -0.01172793 0.01014213
v 0.00077822 -0.01055486 0.00794747
v -0.00017822 0.00508859 0.00271506
v 0.00017822 0.00738748 0.00394385
v 0.00077822 -0.00247652 0.0274503
v 0.00077822 -0.0047971 0.02658123
v -0.00017822 -0.01304162 0.01240586
v 0.00017822 -0.01228494 0.00991141
v 0.00077822 0.01253543 0.015
v -0.00017822 0 0.02829712
v 0.00017822 -0.00259414 0.02804163
v 0.00077822 0.00485787 0.00327207
v 0.00077822 0.00696431 0.00457717
v 0.00017822 0.01304162 0.01240586
v 0.00077822 -0.01158123 0.0102029
v 0.00017822 0.00508859 0.00271506
v 0.00077822 -0.00244554 0.02729457
v 0.00017822 -0.01304162 0.01240586
v 0.00017822 0 0.02829712
v 0.00077822 0.0047971 0.00341877
v -0.00047822 0.0129624 0.01242162
v -0.00069783 0.01299567 0.015
v -0.00069783 0.01274596 0.01246467
v 0.00047822 0.0129624 0.01242162
v 0.00047822 0.01321635 0.015
v 0.00069783 0.01299567 0.015
v 0.00069783 0.01274596 0.01246467
v -0.00047822 0.01221031 0.00994232
v -0.00069783 0.01200643 0.01002677
v 0.00047822 0.01221031 0.00994232
v -0.00047822 0.01098899 0.00765739
v -0.00069783 0.0108055 0.00777999
v 0.00047822 0.01098899 0.00765739
v 0.00069783 0.01200643 0.01002677
v -0.00047822 0.00934537 0.00565463
v -0.00069783 0.00918933 0.00581067
v 0.00047822 0.00934537 0.00565463
v 0.00069783 0.0108055 0.00777999
v -0.00047822 0.00734261 0.00401101
v -0.00069783 0.00722001 0.0041945
v 0.00047822 0.00734261 0.00401101
v 0.00069783 0.00722001 0.0041945
v 0.00069783 0.00918933 0.00581067
v -0.00047822 0.00505768 0.00278969
v -0.00069783 0.00497323 0.00299357
v 0.00047822 0.00505768 0.00278969
v 0.00069783 0.00497323 0.00299357
v -0.00047822 0.00257838 0.0020376
v -0.00069783 0.00253533 0.00225404
v 0.00047822 0.00257838 0.0020376
v 0.00069783 0.00253533 0.00225404
v -0.00047822 0 0.00178365
v -0.00069783 0 0.00200433
v 0.00069783 0 0.00200433
v -0.00047822 -0.00257838 0.0020376
v -0.00069783 -0.00253533 0.00225404
v 0.00047822 -0.00257838 0.0020376
v 0.00047822 0 0.00178365
v 0.00069783 -0.00253533 0.00225404
v -0.00047822 -0.00505768 0.00278969
v -0.00069783 -0.00497323 0.00299357
v 0.00047822 -0.00505768 0.00278969
v -0.00047822 -0.00734261 0.00401101
v -0.00069783 -0.00722001 0.0041945
v 0.00047822 -0.00734261 0.00401101
v 0.00069783 -0.00497323 0.00299357
v -0.00047822 -0.00934537 0.00565463
v -0.00069783 -0.00918933 0.00581067
v 0.00047822 -0.00934537 0.00565463
v 0.00069783 -0.00722001 0.0041945
v -0.00047822 -0.01098899 0.00765739
v -0.00069783 -0.0108055 0.00777999
v 0.00047822 -0.01098899 0.00765739
v 0.00069783 -0.0108055 0.00777999
v 0.00069783 -0.00918933 0.00581067
v -0.00047822 -0.01221031 0.00994232
v -0.00069783 -0.01200643 0.01002677
v 0.00047822 -0.01221031 0.00994232
v 0.00069783 -0.01200643 0.01002677
v -0.00047822 -0.0129624 0.01242162
v -0.00069783 -0.01274596 0.01246467
v 0.00069783 -0.01274596 0.01246467
v -0.00047822 -0.01321635 0.015
v -0.00069783 -0.01299567 0.015
v 0.00047822 -0.0129624 0.01242162
v 0.00069783 -0.01299567 0.015
v -0.00047822 -0.0129624 0.01757838
v -0.00069783 -0.01274596 0.01753533
v 0.00047822 -0.0129624 0.01757838
v 0.00047822 -0.01321635 0.015
v -0.00047822 -0.01221031 0.02005768
v -0.00069783 -0.01200643 0.01997323
v 0.00047822 -0.01221031 0.02005768
v 0.00069783 -0.01274596 0.01753533
v -0.00047822 -0.01098899 0.02234261
v -0.00069783 -0.0108055 0.02222001
v 0.00069783 -0.01080551 0.02222001
v 0.00069783 -0.01200643 0.01997323
v -0.00047822 -0.00934537 0.02434537
v -0.00069783 -0.00918933 0.02418933
v 0.00047822 -0.00934537 0.02434537
v 0.00047822 -0.01098899 0.02234261
v 0.00069783 -0.00918933 0.02418933
v -0.00047822 -0.00734261 0.02598899
v -0.00069783 -0.00722001 0.02580551
v 0.00047822 -0.00734261 0.02598899
v 0.00069783 -0.00722001 0.02580551
v -0.00047822 -0.00505768 0.02721032
v -0.00069783 -0.00497323 0.02700644
v 0.00047822 -0.00505768 0.02721032
v -0.00047822 -0.00257838 0.0279624
v -0.00069783 -0.00253533 0.02774596
v 0.00069783 -0.00253533 0.02774596
v 0.00069783 -0.00497323 0.02700644
v -0.00047822 0 0.02821635
v -0.00069783 0 0.02799567
v 0.00047822 -0.00257838 0.0279624
v 0.00069783 0 0.02799567
v -0.00047822 0.00257838 0.0279624
v -0.00069783 0.00253533 0.02774596
v 0.00047822 0.00257838 0.0279624
v 0.00047822 0 0.02821635
v 0.00069783 0.00253533 0.02774596
v -0.00047822 0.00505768 0.02721032
v -0.00069783 0.00497323 0.02700644
v 0.00047822 0.00505768 0.02721032
v 0.00069783 0.00497323 0.02700644
v -0.00047822 0.00734261 0.02598899
v -0.00069783 0.00722001 0.02580551
v 0.00069783 0.00722001 0.02580551
v -0.00047822 0.00934537 0.02434537
v -0.00069783 0.00918933 0.02418933
v 0.00047822 0.00734261 0.02598899
v 0.00069783 0.00918933 0.02418933
v -0.00047822 0.01098899 0.02234261
v -0.00069783 0.01080551 0.02222001
v 0.00047822 0.00934537 0.02434537
v 0.00069783 0.0108055 0.02222001
v -0.00047822 0.01221031 0.02005768
v -0.00069783 0.01200643 0.01997323
v 0.00047822 0.01221031 0.02005768
v 0.00047822 0.01098899 0.02234261
v 0.00069783 0.01200643 0.01997323
v -0.00047822 0.0129624 0.01757838
v -0.00069783 0.01274596 0.01753533
v 0.00069783 0.01274596 0.01753533
v -0.00047822 0.01321635 0.015
v 0.00047822 0.0129624 0.01757838
v -0.00069783 0.01199891 0.01261327
v -0.00077822 0.01229457 0.01255446
v -0.00047822 0.0120133 0.015
v -0.00047822 0.01178247 0.01265632
v 0.00069783 0.01199891 0.01261327
v 0.00069783 0.01223398 0.015
v 0.00047822 0.0120133 0.015
v -0.00069783 0.01130272 0.01031826
v -0.00047822 0.01109884 0.01040271
v 0.00069783 0.01130272 0.01031826
v 0.00047822 0.01178247 0.01265632
v -0.00069783 0.01017218 0.00820317
v -0.00047822 0.0099887 0.00832577
v 0.00047822 0.0099887 0.00832577
v 0.00047822 0.01109884 0.01040271
v -0.00069783 0.00865073 0.00634927
v -0.00047822 0.00849469 0.00650531
v 0.00069783 0.00865073 0.00634927
v 0.00069783 0.01017218 0.00820317
v 0.00047822 0.00849469 0.00650531
v -0.00069783 0.00679683 0.00482782
v -0.00047822 0.00667423 0.00501131
v 0.00047822 0.00667423 0.00501131
v -0.00069783 0.00468174 0.00369728
v -0.00047822 0.00459729 0.00390116
v 0.00069783 0.00468174 0.00369728
v 0.00069783 0.00679683 0.00482782
v 0.00047822 0.00459729 0.00390116
v -0.00069783 0.00238673 0.0030011
v -0.00047822 0.00234368 0.00321753
v 0.00069783 0.00238673 0.0030011
v 0.00047822 0.00234368 0.00321753
v -0.00069783 0 0.00276602
v -0.00047822 0 0.0029867
v 0.00069783 0 0.00276602
v 0.00047822 0 0.0029867
v -0.00069783 -0.00238673 0.0030011
v -0.00047822 -0.00234368 0.00321753
v 0.00069783 -0.00238673 0.0030011
v -0.00069783 -0.00468174 0.00369728
v -0.00047822 -0.00459729 0.00390116
v 0.00069783 -0.00468174 0.00369728
v 0.00047822 -0.00234368 0.00321753
v -0.00069783 -0.00679683 0.00482782
v -0.00047822 -0.00667423 0.00501131
v 0.00069783 -0.00679683 0.00482782
v 0.00047822 -0.00459729 0.00390116
v 0.00047822 -0.00667423 0.00501131
v -0.00069783 -0.00865073 0.00634927
v -0.00047822 -0.00849469 0.00650531
v 0.00069783 -0.00865073 0.00634927
v 0.00047822 -0.00849469 0.00650531
v -0.00069783 -0.01017218 0.00820317
v -0.00047822 -0.0099887 0.00832577
v 0.00069783 -0.01017218 0.00820317
v -0.00069783 -0.01130272 0.01031826
v -0.00047822 -0.01109884 0.01040271
v 0.00069783 -0.01130272 0.01031826
v 0.00047822 -0.0099887 0.00832577
v -0.00069783 -0.01199891 0.01261327
v -0.00047822 -0.01178247 0.01265632
v 0.00069783 -0.01199891 0.01261327
v 0.00047822 -0.01178247 0.01265632
v 0.00047822 -0.01109884 0.01040271
v -0.00069783 -0.01223398 0.015
v -0.00047822 -0.0120133 0.015
v 0.00047822 -0.0120133 0.015
v -0.00069783 -0.01199891 0.01738673
v -0.00047822 -0.01178247 0.01734368
v 0.00069783 -0.01199891 0.01738673
v 0.00069783 -0.01223398 0.015
v -0.00069783 -0.01130272 0.01968174
v -0.00047822 -0.01109884 0.01959729
v 0.00069783 -0.01130272 0.01968174
v 0.00047822 -0.01178247 0.01734368
v -0.00069783 -0.01017218 0.02179684
v -0.00047822 -0.0099887 0.02167423
v 0.00047822 -0.0099887 0.02167423
v 0.00047822 -0.01109884 0.01959729
v -0.00069783 -0.00865073 0.02365073
v -0.00047822 -0.00849469 0.02349469
v 0.00069783 -0.01017218 0.02179684
v 0.00047822 -0.00849469 0.02349469
v -0.00069783 -0.00679683 0.02517218
v -0.00047822 -0.00667423 0.02498869
v 0.00069783 -0.00865073 0.02365073
v 0.00047822 -0.00667423 0.02498869
v -0.00069783 -0.00468174 0.02630272
v -0.00047822 -0.00459729 0.02609884
v 0.00069783 -0.00468174 0.02630272
v 0.00069783 -0.00679683 0.02517218
v 0.00047822 -0.00459729 0.02609884
v -0.00069783 -0.00238673 0.02699891
v -0.00047822 -0.00234368 0.02678247
v 0.00069783 -0.00238673 0.02699891
v 0.00047822 -0.00234368 0.02678247
v -0.00069783 0 0.02723398
v -0.00047822 0 0.0270133
v 0.00047822 0 0.0270133
v -0.00069783 0.00238673 0.02699891
v -0.00047822 0.00234368 0.02678247
v 0.00069783 0.00238673 0.02699891
v 0.00069783 0 0.02723398
v -0.00069783 0.00468174 0.02630272
v -0.00047822 0.00459729 0.02609884
v 0.00069783 0.00468174 0.02630272
v 0.00047822 0.00234368 0.02678247
v -0.00069783 0.00679683 0.02517218
v -0.00047822 0.00667423 0.02498869
v 0.00069783 0.00679683 0.02517218
v 0.00047822 0.00459729 0.02609884
v 0.00047822 0.00667423 0.02498869
v -0.00069783 0.00865073 0.02365073
v -0.00047822 0.00849469 0.02349469
v 0.00069783 0.00865073 0.02365073
v 0.00047822 0.00849469 0.02349469
v -0.00069783 0.01017218 0.02179684
v -0.00047822 0.0099887 0.02167423
v 0.00069783 0.01017218 0.02179684
v -0.00069783 0.01130272 0.01968174
v -0.00047822 0.01109884 0.01959729
v 0.00069783 0.01130272 0.01968174
v 0.00047822 0.0099887 0.02167423
v -0.00069783 0.01199891 0.01738673
v -0.00047822 0.01178247 0.01734368
v 0.00069783 0.01199891 0.01738673
v 0.00047822 0.01178247 0.01734368
v 0.00047822 0.01109884 0.01959729
v -0.00069783 0.01223398 0.015
vn 0.13007 -0.9915 -0
vn -0.13007 -0.97245 -0.19343
vn 0.13007 -0.97245 -0.19343
vn 0.99045 -0.13525 0.0269
vn 0.99254 0.11266 -0.04666
vn 0.99045 -0.12741 0.05277
vn 0.99254 0.10139 -0.06774
vn 0.99045 -0.11466 0.07662
vn 0.99254 0.08622 -0.08622
vn 0.99045 -0.09751 0.09751
vn 0.99045 -0.07662 0.11466
vn 0.99254 0.06775 -0.10139
vn 0.99045 -0.05277 0.12741
vn 0.99254 0.04666 -0.11266
vn 0.99045 -0.0269 0.13525
vn 0.99254 0.02379 -0.1196
vn 0.99045 0 0.1379
vn 0.99254 -0 -0.12194
vn 0.99254 -0.02379 -0.1196
vn 0.99045 0.0269 0.13525
vn 0.99254 -0.04666 -0.11266
vn 0.99045 0.05277 0.12741
vn 0.99254 -0.06774 -0.10139
vn 0.99045 0.07662 0.11466
vn 0.99254 -0.08622 -0.08622
vn 0.99045 0.09751 0.09751
vn 0.99045 0.11466 0.07661
vn 0.99254 -0.10139 -0.06774
vn 0.99045 0.12741 0.05277
vn 0.99254 -0.11266 -0.04666
vn 0.99045 0.13525 0.0269
vn 0.99254 -0.1196 -0.02379
vn 0.99045 0.1379 0
vn 0.99254 -0.12194 0
vn 0.99254 -0.1196 0.02379
vn 0.99045 0.13525 -0.0269
vn 0.99254 -0.11266 0.04666
vn 0.99045 0.12741 -0.05277
vn 0.99254 -0.10139 0.06775
vn 0.99045 0.11466 -0.07661
vn 0.99254 -0.08622 0.08622
vn 0.99045 0.09751 -0.09751
vn 0.99045 0.07661 -0.11466
vn 0.99254 -0.06774 0.10139
vn 0.99045 0.05277 -0.1274
vn 0.99254 -0.04666 0.11265
vn 0.99045 0.0269 -0.13525
vn 0.99254 -0.02379 0.1196
vn 0.99045 0 -0.1379
vn 0.99254 0 0.12194
vn 0.99254 0.02379 0.1196
vn 0.99045 -0.0269 -0.13525
vn 0.99254 0.04666 0.11265
vn 0.99045 -0.05277 -0.1274
vn 0.99254 0.06774 0.10139
vn 0.99045 -0.07661 -0.11466
vn 0.99254 0.08622 0.08622
vn 0.99045 -0.09751 -0.09751
vn 0.99045 -0.11466 -0.07661
vn 0.99254 0.10139 0.06775
vn 0.99045 -0.12741 -0.05277
vn 0.99254 0.11266 0.04666
vn 0.99045 -0.13525 -0.0269
vn 0.99254 0.1196 0.02379
vn 0.99045 -0.1379 -0
vn 0.99254 0.12194 0
vn -0.1322 0.97218 -0.19338
vn 0.1322 0.91577 -0.37933
vn 0.1322 0.97218 -0.19338
vn -0.1322 0.97218 0.19338
vn 0.13219 0.99122 -0
vn 0.1322 0.97218 0.19338
vn -0.13221 0.82417 -0.5507
vn 0.13221 0.7009 -0.7009
vn 0.13221 0.82417 -0.5507
vn -0.13221 0.7009 -0.7009
vn 0.1322 0.55069 -0.82417
vn -0.1322 0.55069 -0.82417
vn 0.13219 0.37933 -0.91577
vn -0.13219 0.37933 -0.91577
vn 0.1322 0.19338 -0.97218
vn -0.1322 0.19338 -0.97218
vn 0.1322 -0 -0.99122
vn -0.1322 0 -0.99122
vn 0.1322 -0.19338 -0.97218
vn -0.1322 -0.19338 -0.97218
vn 0.1322 -0.37933 -0.91577
vn -0.13219 -0.37933 -0.91577
vn 0.1322 -0.5507 -0.82417
vn -0.1322 -0.55069 -0.82417
vn 0.13221 -0.7009 -0.7009
vn -0.13221 -0.7009 -0.7009
vn 0.13221 -0.82417 -0.5507
vn -0.13221 -0.82417 -0.5507
vn 0.1322 -0.91577 -0.37932
vn -0.1322 -0.91577 -0.37933
vn 0.1322 -0.97218 -0.19338
vn -0.1322 -0.97218 -0.19338
vn 0.13219 -0.99122 0
vn -0.13219 -0.99122 -0
vn 0.1322 -0.97218 0.19338
vn -0.1322 -0.97218 0.19338
vn 0.13219 -0.91577 0.37933
vn -0.1322 -0.91577 0.37933
vn 0.13221 -0.82417 0.5507
vn -0.13221 -0.82417 0.5507
vn 0.13221 -0.7009 0.7009
vn -0.13221 -0.7009 0.7009
vn 0.1322 -0.55069 0.82417
vn -0.1322 -0.55069 0.82417
vn 0.1322 -0.37933 0.91577
vn -0.1322 -0.37933 0.91577
vn 0.1322 -0.19338 0.97218
vn -0.1322 -0.19338 0.97218
vn 0.13219 0 0.99122
vn -0.13219 -0 0.99122
vn 0.1322 0.19338 0.97218
vn -0.1322 0.19338 0.97218
vn 0.1322 0.37933 0.91577
vn -0.1322 0.37933 0.91577
vn 0.1322 0.55069 0.82417
vn -0.1322 0.55069 0.82417
vn 0.13221 0.7009 0.7009
vn -0.13221 0.7009 0.7009
vn 0.13221 0.82417 0.5507
vn -0.13221 0.82417 0.5507
vn 0.1322 0.91577 0.37932
vn -0.1322 0.91577 0.37933
vn -0.1322 0.91577 -0.37932
vn -0.99045 0.1379 0
vn -0.99254 -0.1196 -0.02379
vn -0.99045 0.13525 0.0269
vn 0.13007 0 0.9915
vn -0.13007 -0.19343 0.97245
vn 0.13007 -0.19343 0.97245
vn -0.99045 0 -0.1379
vn -0.99254 0.02379 0.1196
vn -0.99254 0 0.12194
vn 0.13008 0.97245 -0.19343
vn -0.13007 0.9915 0
vn 0.13007 0.9915 0
vn 0.13007 -0.37943 -0.91603
vn -0.13009 -0.19343 -0.97245
vn 0.13009 -0.19343 -0.97245
vn -0.99045 0 0.1379
vn -0.99254 0.02379 -0.1196
vn -0.99045 -0.0269 0.13525
vn -0.99254 -0.1196 0.02379
vn -0.99254 -0.12194 0
vn 0.13007 0.19343 0.97245
vn -0.13007 0 0.9915
vn -0.99045 -0.0269 -0.13525
vn -0.99254 0.04666 0.11265
vn 0.13008 0.91603 -0.37943
vn -0.13008 0.97245 -0.19343
vn 0.13008 -0.55085 -0.8244
vn -0.13007 -0.37943 -0.91603
vn -0.99254 -0.02379 -0.1196
vn -0.99254 -0 -0.12194
vn -0.99045 0.13525 -0.0269
vn -0.99254 -0.11266 0.04666
vn 0.13008 0.37943 0.91603
vn -0.13007 0.19343 0.97245
vn 0.13007 -0.97245 0.19343
vn -0.13007 -0.9915 0
vn -0.99045 -0.05277 -0.1274
vn -0.99254 0.06774 0.10139
vn 0.13008 0.8244 -0.55085
vn -0.13008 0.91603 -0.37943
vn 0.13008 -0.7011 -0.7011
vn -0.13008 -0.55085 -0.8244
vn -0.99045 0.0269 0.13525
vn -0.99254 -0.04666 -0.11266
vn -0.99045 -0.1379 -0
vn -0.99254 0.1196 0.02379
vn -0.99045 -0.13525 -0.0269
vn -0.99045 0.12741 -0.05277
vn -0.99254 -0.10139 0.06775
vn 0.13007 0.55085 0.82441
vn -0.13008 0.37943 0.91603
vn -0.99045 -0.07661 -0.11466
vn -0.99254 0.08622 0.08622
vn 0.13008 0.7011 -0.7011
vn -0.13008 0.8244 -0.55085
vn -0.99045 -0.13525 0.0269
vn -0.99254 0.11266 -0.04666
vn -0.99254 0.1196 -0.02379
vn 0.13008 -0.8244 -0.55085
vn -0.13008 -0.7011 -0.7011
vn -0.99045 0.05277 0.12741
vn -0.99254 -0.06774 -0.10139
vn 0.13007 -0.82441 0.55085
vn -0.13008 -0.91603 0.37943
vn 0.13008 -0.91603 0.37943
vn -0.99045 0.11466 -0.07661
vn -0.99254 -0.08622 0.08622
vn 0.13006 0.7011 0.7011
vn -0.13007 0.55085 0.82441
vn -0.99045 -0.11466 -0.07661
vn -0.99045 -0.09751 -0.09751
vn 0.13008 0.55085 -0.8244
vn -0.13008 0.7011 -0.7011
vn -0.99045 -0.12741 0.05277
vn -0.99254 0.10139 -0.06774
vn 0.13008 -0.91603 -0.37943
vn -0.13008 -0.8244 -0.55085
vn -0.99045 0.07662 0.11466
vn -0.99254 -0.08622 -0.08622
vn 0.13006 -0.7011 0.7011
vn -0.13007 -0.82441 0.55085
vn -0.99045 0.07661 -0.11466
vn -0.99045 0.09751 -0.09751
vn 0.13007 0.82441 0.55085
vn -0.13006 0.7011 0.7011
vn -0.99045 -0.12741 -0.05277
vn -0.99254 0.10139 0.06775
vn 0.13007 0.37943 -0.91603
vn -0.13008 0.55085 -0.8244
vn -0.99045 -0.09751 0.09751
vn -0.99045 -0.11466 0.07661
vn -0.13008 -0.91603 -0.37943
vn -0.99045 0.09751 0.09751
vn -0.99254 -0.10139 -0.06774
vn 0.13007 -0.55085 0.82441
vn -0.13006 -0.7011 0.7011
vn -0.99045 0.05277 -0.1274
vn -0.99254 -0.06774 0.10139
vn 0.13008 0.91603 0.37943
vn -0.13007 0.82441 0.55085
vn -0.99254 0.11266 0.04666
vn 0.13009 0.19343 -0.97245
vn -0.13007 0.37943 -0.91603
vn -0.99045 -0.07662 0.11466
vn -0.99254 0.08622 -0.08623
vn -0.13219 0.99122 0
vn -0.99045 0.12741 0.05277
vn -0.99045 0.11466 0.07661
vn 0.13008 -0.37943 0.91603
vn -0.13007 -0.55085 0.82441
vn -0.99045 0.0269 -0.13525
vn -0.99254 -0.04666 0.11265
vn 0.13008 0.97245 0.19343
vn -0.13008 0.91603 0.37943
vn -0.99254 0.12194 0
vn 0.13007 0 -0.9915
vn -0.13009 0.19343 -0.97245
vn -0.99045 -0.05277 0.12741
vn -0.99254 0.06774 -0.10139
vn -0.13008 -0.97245 0.19343
vn -0.99254 -0.11266 -0.04666
vn -0.13008 -0.37943 0.91603
vn -0.99254 -0.02379 0.1196
vn -0.13007 0.97245 0.19343
vn -0.13007 -0 -0.9915
vn -0.99254 0.04666 -0.11266
vn 0.49467 -0.85238 0.16955
vn 0.85996 -0.51036 0
vn 0.85996 -0.50056 0.09957
vn -0.49467 -0.85238 0.16955
vn -0.49468 -0.86908 -0
vn -0.85996 -0.51036 -0
vn -0.85996 -0.50056 0.09957
vn 0.49468 -0.80292 0.33258
vn 0.85996 -0.47152 0.19531
vn -0.49468 -0.80292 0.33258
vn 0.49467 -0.72261 0.48284
vn 0.85996 -0.42435 0.28354
vn -0.49467 -0.72261 0.48284
vn -0.85996 -0.47152 0.19531
vn 0.49466 -0.61454 0.61454
vn 0.85996 -0.36088 0.36088
vn -0.49466 -0.61454 0.61454
vn -0.85996 -0.42435 0.28354
vn 0.49467 -0.48284 0.72261
vn 0.85996 -0.28354 0.42435
vn -0.49467 -0.48284 0.72261
vn -0.85996 -0.28354 0.42435
vn -0.85996 -0.36088 0.36088
vn 0.49468 -0.33258 0.80292
vn 0.85996 -0.19531 0.47152
vn -0.49468 -0.33258 0.80292
vn -0.85996 -0.19531 0.47152
vn 0.49467 -0.16955 0.85238
vn 0.85996 -0.09957 0.50056
vn -0.49467 -0.16955 0.85238
vn -0.85996 -0.09957 0.50056
vn 0.49467 0 0.86908
vn 0.85996 0 0.51036
vn -0.85996 0 0.51036
vn 0.49467 0.16955 0.85238
vn 0.85996 0.09957 0.50056
vn -0.49467 0.16955 0.85238
vn -0.49467 0 0.86908
vn -0.85996 0.09957 0.50056
vn 0.49468 0.33258 0.80292
vn 0.85996 0.19531 0.47152
vn -0.49468 0.33258 0.80292
vn 0.49467 0.48284 0.72261
vn 0.85996 0.28355 0.42435
vn -0.49467 0.48284 0.72261
vn -0.85996 0.19531 0.47152
vn 0.49466 0.61454 0.61454
vn 0.85996 0.36088 0.36088
vn -0.49466 0.61454 0.61454
vn -0.85996 0.28355 0.42435
vn 0.49467 0.72261 0.48284
vn 0.85996 0.42435 0.28354
vn -0.49467 0.72261 0.48284
vn -0.85996 0.42435 0.28354
vn -0.85996 0.36088 0.36088
vn 0.49468 0.80292 0.33258
vn 0.85996 0.47152 0.19531
vn -0.49468 0.80292 0.33258
vn -0.85996 0.47152 0.19531
vn 0.49467 0.85238 0.16955
vn 0.85996 0.50056 0.09957
vn -0.85996 0.50056 0.09957
vn 0.49468 0.86908 0
vn 0.85996 0.51037 0
vn -0.49467 0.85238 0.16955
vn -0.85996 0.51037 0
vn 0.49467 0.85238 -0.16955
vn 0.85996 0.50056 -0.09957
vn -0.49467 0.85238 -0.16955
vn -0.49468 0.86908 0
vn 0.49468 0.80292 -0.33258
vn 0.85996 0.47152 -0.19531
vn -0.49468 0.80292 -0.33258
vn -0.85996 0.50056 -0.09957
vn 0.49468 0.72261 -0.48283
vn 0.85996 0.42435 -0.28354
vn -0.85995 0.42436 -0.28355
vn -0.85996 0.47152 -0.19531
vn 0.49467 0.61453 -0.61453
vn 0.85996 0.36088 -0.36088
vn -0.49467 0.61453 -0.61453
vn -0.49467 0.72261 -0.48283
vn -0.85996 0.36089 -0.36089
vn 0.49468 0.48284 -0.72261
vn 0.85995 0.28355 -0.42436
vn -0.49468 0.48284 -0.72261
vn -0.85995 0.28355 -0.42436
vn 0.49466 0.33258 -0.80293
vn 0.85996 0.19531 -0.47152
vn -0.49466 0.33258 -0.80293
vn 0.49469 0.16955 -0.85237
vn 0.85996 0.09957 -0.50056
vn -0.85996 0.09957 -0.50056
vn -0.85996 0.19531 -0.47152
vn 0.49468 0 -0.86908
vn 0.85996 0 -0.51036
vn -0.49469 0.16955 -0.85237
vn -0.85996 0 -0.51036
vn 0.49469 -0.16955 -0.85237
vn 0.85996 -0.09957 -0.50056
vn -0.49469 -0.16955 -0.85237
vn -0.49468 -0 -0.86908
vn -0.85996 -0.09957 -0.50056
vn 0.49466 -0.33258 -0.80293
vn 0.85996 -0.19531 -0.47152
vn -0.49466 -0.33258 -0.80293
vn -0.85996 -0.19531 -0.47152
vn 0.49468 -0.48284 -0.72261
vn 0.85995 -0.28355 -0.42436
vn -0.85995 -0.28355 -0.42436
vn 0.49467 -0.61453 -0.61453
vn 0.85996 -0.36089 -0.36089
vn -0.49468 -0.48284 -0.72261
vn -0.85996 -0.36088 -0.36088
vn 0.49467 -0.72261 -0.48283
vn 0.85995 -0.42436 -0.28355
vn -0.49467 -0.61453 -0.61453
vn -0.85996 -0.42435 -0.28354
vn 0.49468 -0.80292 -0.33258
vn 0.85996 -0.47152 -0.19531
vn -0.49468 -0.80292 -0.33258
vn -0.49468 -0.72261 -0.48283
vn -0.85996 -0.47152 -0.19531
vn 0.49467 -0.85238 -0.16955
vn 0.85996 -0.50056 -0.09957
vn -0.85996 -0.50056 -0.09957
vn 0.49468 -0.86908 0
vn -0.49467 -0.85238 -0.16955
vn 0.87389 0.47677 -0.09484
vn 0.99254 0.1196 -0.02379
vn 0.50873 0.86093 -0
vn 0.50873 0.84439 -0.16796
vn -0.87389 0.47677 -0.09484
vn -0.87389 0.48612 -0
vn -0.50873 0.86093 -0
vn 0.87389 0.44911 -0.18603
vn 0.50872 0.7954 -0.32946
vn -0.87389 0.44911 -0.18603
vn -0.50873 0.84439 -0.16796
vn 0.87389 0.4042 -0.27008
vn 0.50873 0.71584 -0.4783
vn -0.50873 0.71584 -0.4783
vn -0.50872 0.7954 -0.32946
vn 0.87389 0.34374 -0.34374
vn 0.50873 0.60877 -0.60877
vn -0.87389 0.34374 -0.34374
vn -0.87389 0.4042 -0.27008
vn -0.50873 0.60877 -0.60877
vn 0.87389 0.27007 -0.40419
vn 0.50872 0.47831 -0.71584
vn -0.50872 0.47831 -0.71584
vn 0.87389 0.18603 -0.44911
vn 0.50872 0.32947 -0.7954
vn -0.87389 0.18603 -0.44912
vn -0.87389 0.27007 -0.40419
vn -0.50872 0.32946 -0.7954
vn 0.87389 0.09484 -0.47679
vn 0.50872 0.16796 -0.84439
vn -0.87389 0.09484 -0.47678
vn -0.50872 0.16796 -0.84439
vn 0.87389 -0 -0.48612
vn 0.50873 -0 -0.86093
vn -0.87389 -0 -0.48612
vn -0.50873 -0 -0.86093
vn 0.87389 -0.09484 -0.47678
vn 0.50872 -0.16796 -0.84439
vn -0.87389 -0.09484 -0.47679
vn 0.87389 -0.18603 -0.44912
vn 0.50872 -0.32946 -0.7954
vn -0.87389 -0.18603 -0.44911
vn -0.50872 -0.16796 -0.84439
vn 0.87389 -0.27007 -0.40419
vn 0.50872 -0.47831 -0.71584
vn -0.87389 -0.27007 -0.40419
vn -0.50872 -0.32947 -0.7954
vn -0.50872 -0.47831 -0.71584
vn 0.87389 -0.34374 -0.34374
vn 0.50873 -0.60877 -0.60877
vn -0.87389 -0.34374 -0.34374
vn -0.50873 -0.60877 -0.60877
vn 0.87389 -0.4042 -0.27008
vn 0.50873 -0.71584 -0.4783
vn -0.87389 -0.4042 -0.27008
vn 0.87389 -0.44911 -0.18603
vn 0.50872 -0.7954 -0.32946
vn -0.87389 -0.44911 -0.18603
vn -0.50873 -0.71584 -0.4783
vn 0.87389 -0.47677 -0.09484
vn 0.50873 -0.84439 -0.16796
vn -0.87389 -0.47677 -0.09484
vn -0.50873 -0.84439 -0.16796
vn -0.50872 -0.7954 -0.32946
vn 0.87389 -0.48612 0
vn 0.50873 -0.86093 -0
vn -0.50873 -0.86093 -0
vn 0.87389 -0.47677 0.09484
vn 0.50873 -0.84439 0.16796
vn -0.87389 -0.47677 0.09484
vn -0.87389 -0.48612 0
vn 0.87389 -0.44911 0.18603
vn 0.50872 -0.7954 0.32946
vn -0.87389 -0.44911 0.18603
vn -0.50873 -0.84439 0.16796
vn 0.87389 -0.4042 0.27007
vn 0.50873 -0.71583 0.4783
vn -0.50873 -0.71583 0.4783
vn -0.50872 -0.7954 0.32946
vn 0.87389 -0.34374 0.34374
vn 0.50873 -0.60876 0.60877
vn -0.87389 -0.4042 0.27007
vn -0.50873 -0.60876 0.60877
vn 0.87389 -0.27007 0.40419
vn 0.50873 -0.47831 0.71584
vn -0.87389 -0.34374 0.34374
vn -0.50873 -0.47831 0.71584
vn 0.87389 -0.18603 0.44911
vn 0.50872 -0.32947 0.7954
vn -0.87389 -0.18603 0.44911
vn -0.87389 -0.27007 0.40419
vn -0.50872 -0.32947 0.7954
vn 0.87389 -0.09484 0.47677
vn 0.50873 -0.16796 0.84438
vn -0.87389 -0.09484 0.47677
vn -0.50873 -0.16796 0.84438
vn 0.87389 -0 0.48612
vn 0.50873 -0 0.86093
vn -0.50873 -0 0.86093
vn 0.87389 0.09484 0.47677
vn 0.50873 0.16796 0.84438
vn -0.87389 0.09484 0.47677
vn -0.87389 0 0.48612
vn 0.87389 0.18603 0.44911
vn 0.50872 0.32947 0.7954
vn -0.87389 0.18603 0.44911
vn -0.50873 0.16796 0.84438
vn 0.87389 0.27007 0.40419
vn 0.50873 0.47831 0.71584
vn -0.87389 0.27007 0.40419
vn -0.50872 0.32947 0.7954
vn -0.50873 0.47831 0.71584
vn 0.87389 0.34374 0.34374
vn 0.50873 0.60876 0.60877
vn -0.87389 0.34374 0.34374
vn -0.50873 0.60876 0.60877
vn 0.87389 0.4042 0.27007
vn 0.50873 0.71583 0.4783
vn -0.87389 0.4042 0.27007
vn 0.87389 0.44911 0.18603
vn 0.50872 0.7954 0.32946
vn -0.87389 0.44911 0.18603
vn -0.50873 0.71583 0.4783
vn 0.87389 0.47677 0.09484
vn 0.50873 0.84439 0.16796
vn -0.87389 0.47677 0.09484
vn -0.50873 0.84439 0.16796
vn -0.50872 0.7954 0.32946
vn 0.87389 0.48612 -0
vt 0 0.3855
vt 0.03125 0.6145
vt 0.03125 0.3855
vt 0.96875 0
vt 0.9375 0
vt 0.90625 0
vt 0.875 0
vt 0.84375 0
vt 0.8125 0
vt 0.78125 0
vt 0.75 0
vt 0.71875 0
vt 0.6875 0
vt 0.65625 0
vt 0.625 0
vt 0.59375 0
vt 0.5625 0
vt 0.53125 0
vt 0.5 0
vt 0.46875 0
vt 0.4375 0
vt 0.40625 0
vt 0.375 0
vt 0.34375 0
vt 0.3125 0
vt 0.28125 0
vt 0.25 0
vt 0.21875 0
vt 0.1875 0
vt 0.15625 0
vt 0.125 0
vt 0.09375 0
vt 0.0625 0
vt 0.03125 0
vt 0 0
vt 0.96875 0.6145
vt 0.9375 0.3855
vt 0.96875 0.3855
vt 0.90625 0.6145
vt 0.875 0.3855
vt 0.90625 0.3855
vt 0.875 0.6145
vt 0.84375 0.3855
vt 0.84375 0.6145
vt 0.8125 0.3855
vt 0.8125 0.6145
vt 0.78125 0.3855
vt 0.78125 0.6145
vt 0.75 0.3855
vt 0.75 0.6145
vt 0.71875 0.3855
vt 0.71875 0.6145
vt 0.6875 0.3855
vt 0.6875 0.6145
vt 0.65625 0.3855
vt 0.65625 0.6145
vt 0.625 0.3855
vt 0.625 0.6145
vt 0.59375 0.3855
vt 0.59375 0.6145
vt 0.5625 0.3855
vt 0.5625 0.6145
vt 0.53125 0.3855
vt 0.53125 0.6145
vt 0.5 0.3855
vt 0.5 0.6145
vt 0.46875 0.3855
vt 0.46875 0.6145
vt 0.4375 0.3855
vt 0.4375 0.6145
vt 0.40625 0.3855
vt 0.40625 0.6145
vt 0.375 0.3855
vt 0.375 0.6145
vt 0.34375 0.3855
vt 0.34375 0.6145
vt 0.3125 0.3855
vt 0.3125 0.6145
vt 0.28125 0.3855
vt 0.28125 0.6145
vt 0.25 0.3855
vt 0.25 0.6145
vt 0.21875 0.3855
vt 0.21875 0.6145
vt 0.1875 0.3855
vt 0.1875 0.6145
vt 0.15625 0.3855
vt 0.15625 0.6145
vt 0.125 0.3855
vt 0.125 0.6145
vt 0.09375 0.3855
vt 0.09375 0.6145
vt 0.0625 0.3855
vt 0.0625 0.6145
vt 0.9375 0.6145
vt 0.5 1
vt 0.53125 1
vt 0.25 1
vt 0.21875 1
vt 0.75 1
vt 0.78125 1
vt 0.46875 1
vt 0.1875 1
vt 0.71875 1
vt 0.4375 1
vt 1 0.6145
vt 1 0.3855
vt 0.15625 1
vt 0.6875 1
vt 0 1
vt 0.03125 1
vt 0.40625 1
vt 0.125 1
vt 0.96875 1
vt 0.9375 1
vt 0.65625 1
vt 0.375 1
vt 0.09375 1
vt 0.90625 1
vt 0.625 1
vt 0.34375 1
vt 0.0625 1
vt 0.875 1
vt 0.59375 1
vt 0.3125 1
vt 0.84375 1
vt 0.5625 1
vt 0.28125 1
vt 1 1
vt 0.8125 1
vt 0.96875 0.19275
vt 1 0
vt 0.96875 0.80725
vt 0.9999 0.80725
vt 0.9375 0.19275
vt 0.9375 0.80725
vt 0.90625 0.19275
vt 0.90625 0.80725
vt 0.875 0.19275
vt 0.875 0.80725
vt 0.84375 0.19275
vt 0.84375 0.80725
vt 0.8125 0.19275
vt 0.8125 0.80725
vt 0.78125 0.19275
vt 0.78125 0.80725
vt 0.75 0.19275
vt 0.71875 0.19275
vt 0.71875 0.80725
vt 0.75 0.80725
vt 0.6875 0.19275
vt 0.6875 0.80725
vt 0.65625 0.19275
vt 0.65625 0.80725
vt 0.625 0.19275
vt 0.625 0.80725
vt 0.59375 0.19275
vt 0.59375 0.80725
vt 0.5625 0.19275
vt 0.5625 0.80725
vt 0.53125 0.19275
vt 0.5 0.19275
vt 0.53125 0.80725
vt 0.46875 0.19275
vt 0.46875 0.80725
vt 0.5 0.80725
vt 0.4375 0.19275
vt 0.4375 0.80725
vt 0.40625 0.19275
vt 0.375 0.19275
vt 0.375 0.80725
vt 0.40625 0.80725
vt 0.34375 0.19275
vt 0.34375 0.80725
vt 0.3125 0.19275
vt 0.3125 0.80725
vt 0.28125 0.19275
vt 0.25 0.19275
vt 0.28125 0.80725
vt 0.21875 0.19275
vt 0.21875 0.80725
vt 0.25 0.80725
vt 0.1875 0.19275
vt 0.1875 0.80725
vt 0.15625 0.19275
vt 0.125 0.19275
vt 0.15625 0.80725
vt 0.09375 0.19275
vt 0.125 0.80725
vt 0.0625 0.19275
vt 0.0625 0.80725
vt 0.09375 0.80725
vt 0.03125 0.19275
vt 0.0001 0.19275
vt 0 0.6145
vt 0.03125 0.80725
vt 1.00011 0.19275
vt 1.00011 0.80725
vt -0.00011 0.19275
vt -0.00011 0.80725
vt 0.9999 0.19275
vt 0.0001 0.80725
usemtl mat0
f 1/1/1 2/2/2 3/3/3
f 4/4/4 5/5/5 6/5/6
f 6/5/6 7/6/7 8/6/8
f 8/6/8 9/7/9 10/7/10
f 11/8/11 9/7/9 12/8/12
f 13/9/13 12/8/12 14/9/14
f 15/10/15 14/9/14 16/10/16
f 17/11/17 16/10/16 18/11/18
f 17/11/17 19/12/19 20/12/20
f 20/12/20 21/13/21 22/13/22
f 22/13/22 23/14/23 24/14/24
f 24/14/24 25/15/25 26/15/26
f 27/16/27 25/15/25 28/16/28
f 29/17/29 28/16/28 30/17/30
f 31/18/31 30/17/30 32/18/32
f 33/19/33 32/18/32 34/19/34
f 33/19/33 35/20/35 36/20/36
f 36/20/36 37/21/37 38/21/38
f 38/21/38 39/22/39 40/22/40
f 40/22/40 41/23/41 42/23/42
f 43/24/43 41/23/41 44/24/44
f 45/25/45 44/24/44 46/25/46
f 47/26/47 46/25/46 48/26/48
f 49/27/49 48/26/48 50/27/50
f 49/27/49 51/28/51 52/28/52
f 52/28/52 53/29/53 54/29/54
f 54/29/54 55/30/55 56/30/56
f 56/30/56 57/31/57 58/31/58
f 59/32/59 57/31/57 60/32/60
f 61/33/61 60/32/60 62/33/62
f 63/34/63 62/33/62 64/34/64
f 65/35/65 64/34/64 66/35/66
f 67/36/67 68/37/68 69/38/69
f 70/2/70 71/1/71 72/3/72
f 73/39/73 74/40/74 75/41/75
f 76/42/76 77/43/77 74/40/74
f 78/44/78 79/45/79 77/43/77
f 80/46/80 81/47/81 79/45/79
f 82/48/82 83/49/83 81/47/81
f 84/50/84 85/51/85 83/49/83
f 86/52/86 87/53/87 85/51/85
f 88/54/88 89/55/89 87/53/87
f 90/56/90 91/57/91 89/55/89
f 92/58/92 93/59/93 91/57/91
f 94/60/94 95/61/95 93/59/93
f 96/62/96 97/63/97 95/61/95
f 98/64/98 99/65/99 97/63/97
f 100/66/100 101/67/101 99/65/99
f 102/68/102 103/69/103 101/67/101
f 104/70/104 105/71/105 103/69/103
f 106/72/106 107/73/107 105/71/105
f 108/74/108 109/75/109 107/73/107
f 110/76/110 111/77/111 109/75/109
f 112/78/112 113/79/113 111/77/111
f 114/80/114 115/81/115 113/79/113
f 116/82/116 117/83/117 115/81/115
f 118/84/118 119/85/119 117/83/117
f 120/86/120 121/87/121 119/85/119
f 122/88/122 123/89/123 121/87/121
f 124/90/124 125/91/125 123/89/123
f 126/92/126 127/93/127 125/91/125
f 128/94/128 72/3/72 127/93/127
f 129/95/129 75/41/75 68/37/68
f 130/96/130 131/97/131 132/97/132
f 133/49/133 134/48/134 135/47/135
f 136/98/136 137/99/137 138/98/138
f 139/67/139 140/66/140 141/65/141
f 142/85/142 143/84/143 144/83/144
f 145/100/145 146/101/146 147/101/147
f 130/96/130 148/102/148 149/96/149
f 150/51/150 151/50/151 133/49/133
f 152/99/152 153/103/153 137/99/137
f 154/69/154 155/68/155 139/67/139
f 156/87/156 157/86/157 142/85/142
f 145/100/145 158/104/158 159/100/159
f 160/102/160 161/105/161 148/102/148
f 162/53/162 163/52/163 150/51/150
f 164/38/164 165/106/165 1/107/1
f 166/103/166 167/108/167 153/103/153
f 168/71/168 169/70/169 154/69/154
f 170/89/170 171/88/171 156/87/156
f 172/104/172 173/109/173 158/104/158
f 174/110/174 175/111/175 176/111/176
f 177/105/177 178/112/178 161/105/161
f 179/55/179 180/54/180 162/53/162
f 181/108/181 182/113/182 167/108/167
f 183/73/183 184/72/184 168/71/168
f 185/114/185 186/115/186 187/114/187
f 188/91/188 189/90/189 170/89/170
f 190/109/190 191/116/191 173/109/173
f 192/41/192 193/95/193 194/37/194
f 195/112/195 196/117/196 178/112/178
f 197/57/197 198/56/198 179/55/179
f 199/118/199 182/113/182 200/113/200
f 201/75/201 202/74/202 183/73/183
f 203/115/203 204/119/204 186/115/186
f 205/93/205 206/92/206 188/91/188
f 207/116/207 208/120/208 191/116/191
f 209/40/209 210/39/210 192/41/192
f 211/121/211 196/117/196 212/117/212
f 213/59/213 214/58/214 197/57/197
f 215/122/215 216/118/216 199/118/199
f 217/77/217 218/76/218 201/75/201
f 219/123/219 204/119/204 220/119/220
f 3/3/3 221/94/221 205/93/205
f 222/120/222 223/124/223 208/120/208
f 224/43/224 225/42/225 209/40/209
f 226/125/226 227/121/227 211/121/211
f 228/61/228 229/60/229 213/59/213
f 176/111/176 230/122/230 215/122/215
f 231/79/231 232/78/232 217/77/217
f 233/126/233 234/123/234 219/123/219
f 235/106/235 69/38/69 71/107/71
f 236/127/236 223/124/223 237/124/237
f 238/45/238 239/44/239 224/43/224
f 240/128/240 241/125/241 226/125/226
f 242/63/242 243/62/243 228/61/228
f 174/129/174 187/114/187 244/129/244
f 245/81/245 246/80/246 231/79/231
f 247/130/247 248/126/248 233/126/233
f 194/37/194 249/36/249 164/38/164
f 132/97/132 250/127/250 236/127/236
f 135/47/135 251/46/251 238/45/238
f 136/98/136 252/128/252 240/128/240
f 141/65/141 253/64/253 242/63/242
f 144/83/144 254/82/254 245/81/245
f 147/101/147 255/130/255 247/130/247
f 1/107/1 256/131/256 164/38/164
f 256/131/256 257/132/257 258/4/258
f 258/4/258 65/132/65 4/4/4
f 165/106/165 259/133/259 260/134/260
f 259/133/259 261/129/261 260/134/260
f 262/114/262 174/129/174 261/129/261
f 164/38/164 263/135/263 194/37/194
f 263/135/263 258/4/258 264/5/264
f 258/4/258 6/5/6 264/5/264
f 193/95/193 259/133/259 249/36/249
f 265/136/265 262/114/262 259/133/259
f 262/114/262 203/115/203 185/114/185
f 192/41/192 263/135/263 266/137/266
f 266/137/266 264/5/264 267/6/267
f 264/5/264 8/6/8 267/6/267
f 210/39/210 265/136/265 193/95/193
f 268/138/268 269/115/269 265/136/265
f 269/115/269 220/119/220 203/115/203
f 209/40/209 266/137/266 270/139/270
f 270/139/270 267/6/267 271/7/271
f 267/6/267 10/7/10 271/7/271
f 225/42/225 268/138/268 210/39/210
f 272/140/272 273/119/273 268/138/268
f 273/119/273 219/123/219 220/119/220
f 209/40/209 274/141/274 224/43/224
f 270/139/270 275/8/275 274/141/274
f 275/8/275 10/7/10 11/8/11
f 225/42/225 276/142/276 272/140/272
f 272/140/272 277/126/277 278/123/278
f 277/126/277 219/123/219 278/123/278
f 224/43/224 279/143/279 238/45/238
f 274/141/274 280/9/280 279/143/279
f 280/9/280 11/8/11 13/9/13
f 239/44/239 281/144/281 276/142/276
f 276/142/276 282/130/282 277/126/277
f 282/130/282 233/126/233 277/126/277
f 238/45/238 283/145/283 135/47/135
f 279/143/279 284/10/284 283/145/283
f 284/10/284 13/9/13 15/10/15
f 251/46/251 285/146/285 281/144/281
f 281/144/281 286/101/286 282/130/282
f 286/101/286 247/130/247 282/130/282
f 133/49/133 283/145/283 287/147/287
f 283/145/283 288/11/288 287/147/287
f 284/10/284 17/11/17 288/11/288
f 151/50/151 285/146/285 134/48/134
f 285/146/285 289/100/289 286/101/286
f 286/101/286 145/100/145 147/101/147
f 133/49/133 290/148/290 150/51/150
f 290/148/290 288/11/288 291/12/291
f 291/12/291 17/11/17 20/12/20
f 151/50/151 292/149/292 293/150/293
f 292/149/292 289/100/289 293/150/293
f 294/104/294 145/100/145 289/100/289
f 162/53/162 290/148/290 295/151/295
f 295/151/295 291/12/291 296/13/296
f 291/12/291 22/13/22 296/13/296
f 180/54/180 292/149/292 163/52/163
f 297/152/297 294/104/294 292/149/292
f 294/104/294 190/109/190 172/104/172
f 179/55/179 295/151/295 298/153/298
f 298/153/298 296/13/296 299/14/299
f 296/13/296 24/14/24 299/14/299
f 198/56/198 297/152/297 180/54/180
f 300/154/300 301/109/301 297/152/297
f 301/109/301 207/116/207 190/109/190
f 197/57/197 298/153/298 302/155/302
f 302/155/302 299/14/299 303/15/303
f 299/14/299 26/15/26 303/15/303
f 214/58/214 300/154/300 198/56/198
f 304/156/304 305/116/305 300/154/300
f 305/116/305 222/120/222 207/116/207
f 197/57/197 306/157/306 213/59/213
f 302/155/302 307/16/307 306/157/306
f 307/16/307 26/15/26 27/16/27
f 214/58/214 308/158/308 304/156/304
f 304/156/304 309/124/309 310/120/310
f 309/124/309 222/120/222 310/120/310
f 213/59/213 311/159/311 228/61/228
f 306/157/306 312/17/312 311/159/311
f 312/17/312 27/16/27 29/17/29
f 229/60/229 313/160/313 308/158/308
f 308/158/308 314/127/314 309/124/309
f 314/127/314 237/124/237 309/124/309
f 228/61/228 315/161/315 242/63/242
f 311/159/311 316/18/316 315/161/315
f 316/18/316 29/17/29 31/18/31
f 253/64/253 313/160/313 243/62/243
f 313/160/313 317/97/317 314/127/314
f 317/97/317 236/127/236 314/127/314
f 141/65/141 315/161/315 318/162/318
f 315/161/315 319/19/319 318/162/318
f 316/18/316 33/19/33 319/19/319
f 140/66/140 320/163/320 253/64/253
f 320/163/320 321/96/321 317/97/317
f 317/97/317 130/96/130 132/97/132
f 141/65/141 322/164/322 139/67/139
f 322/164/322 319/19/319 323/20/323
f 319/19/319 36/20/36 323/20/323
f 140/66/140 324/165/324 325/166/325
f 324/165/324 321/96/321 325/166/325
f 321/96/321 160/102/160 130/96/130
f 154/69/154 322/164/322 326/167/326
f 322/164/322 327/21/327 326/167/326
f 323/20/323 38/21/38 327/21/327
f 169/70/169 324/165/324 155/68/155
f 328/168/328 329/102/329 324/165/324
f 329/102/329 177/105/177 160/102/160
f 154/69/154 330/169/330 168/71/168
f 330/169/330 327/21/327 331/22/331
f 327/21/327 40/22/40 331/22/331
f 184/72/184 328/168/328 169/70/169
f 328/168/328 332/112/332 333/105/333
f 333/105/333 195/112/195 177/105/177
f 168/71/168 334/170/334 183/73/183
f 334/170/334 331/22/331 335/23/335
f 331/22/331 42/23/42 335/23/335
f 184/72/184 336/171/336 337/172/337
f 337/172/337 338/117/338 332/112/332
f 332/112/332 212/117/212 195/112/195
f 183/73/183 339/173/339 201/75/201
f 339/173/339 335/23/335 340/24/340
f 340/24/340 42/23/42 43/24/43
f 202/74/202 341/174/341 336/171/336
f 341/174/341 338/117/338 336/171/336
f 342/121/342 212/117/212 338/117/338
f 201/75/201 343/175/343 217/77/217
f 343/175/343 340/24/340 344/25/344
f 340/24/340 45/25/45 344/25/344
f 218/76/218 345/176/345 341/174/341
f 345/176/345 342/121/342 341/174/341
f 342/121/342 226/125/226 211/121/211
f 217/77/217 346/177/346 231/79/231
f 343/175/343 347/26/347 346/177/346
f 344/25/344 47/26/47 347/26/347
f 246/80/246 345/176/345 232/78/232
f 345/176/345 348/128/348 349/125/349
f 349/125/349 240/128/240 226/125/226
f 245/81/245 346/177/346 350/178/350
f 346/177/346 351/27/351 350/178/350
f 347/26/347 49/27/49 351/27/351
f 254/82/254 352/179/352 246/80/246
f 352/179/352 353/98/353 348/128/348
f 348/128/348 136/98/136 240/128/240
f 245/81/245 354/180/354 144/83/144
f 354/180/354 351/27/351 355/28/355
f 355/28/355 49/27/49 52/28/52
f 254/82/254 356/181/356 357/182/357
f 356/181/356 353/98/353 357/182/357
f 358/99/358 136/98/136 353/98/353
f 144/83/144 359/183/359 142/85/142
f 359/183/359 355/28/355 360/29/360
f 360/29/360 52/28/52 54/29/54
f 157/86/157 356/181/356 143/84/143
f 361/184/361 358/99/358 356/181/356
f 362/103/362 152/99/152 358/99/358
f 156/87/156 359/183/359 363/185/363
f 359/183/359 364/30/364 363/185/363
f 364/30/364 54/29/54 56/30/56
f 171/88/171 361/184/361 157/86/157
f 361/184/361 365/108/365 362/103/362
f 365/108/365 166/103/166 362/103/362
f 170/89/170 363/185/363 366/186/366
f 363/185/363 367/31/367 366/186/366
f 364/30/364 58/31/58 367/31/367
f 189/90/189 368/187/368 171/88/171
f 368/187/368 369/113/369 365/108/365
f 365/108/365 200/113/200 181/108/181
f 188/91/188 366/186/366 370/188/370
f 370/188/370 367/31/367 371/32/371
f 371/32/371 58/31/58 59/32/59
f 206/92/206 372/189/372 189/90/189
f 372/189/372 373/118/373 369/113/369
f 373/118/373 200/113/200 369/113/369
f 188/91/188 374/190/374 205/93/205
f 374/190/374 371/32/371 375/33/375
f 375/33/375 59/32/59 61/33/61
f 206/92/206 376/191/376 377/192/377
f 377/192/377 378/122/378 373/118/373
f 378/122/378 199/118/199 373/118/373
f 3/3/3 374/190/374 379/193/379
f 374/190/374 380/34/380 379/193/379
f 380/34/380 61/33/61 63/34/63
f 2/2/2 376/191/376 221/94/221
f 376/191/376 381/111/381 378/122/378
f 381/111/381 215/122/215 378/122/378
f 1/1/1 379/193/379 382/194/382
f 379/193/379 257/35/257 382/194/382
f 380/34/380 65/35/65 257/35/257
f 165/195/165 383/196/383 2/2/2
f 383/196/383 261/110/261 381/111/381
f 381/111/381 174/110/174 176/111/176
f 66/132/66 384/4/384 385/4/385
f 384/4/384 386/197/386 387/131/387
f 386/197/386 69/38/69 387/131/387
f 244/129/244 388/114/388 389/129/389
f 388/114/388 390/198/390 389/129/389
f 390/198/390 67/36/67 235/106/235
f 5/5/5 384/4/384 391/5/391
f 391/5/391 387/131/387 392/135/392
f 387/131/387 68/37/68 392/135/392
f 186/115/186 388/114/388 187/114/187
f 393/115/393 394/133/394 388/114/388
f 394/133/394 129/95/129 67/36/67
f 7/6/7 391/5/391 395/6/395
f 391/5/391 396/137/396 395/6/395
f 396/137/396 68/37/68 75/41/75
f 204/119/204 393/115/393 186/115/186
f 393/115/393 397/138/397 398/136/398
f 397/138/397 129/95/129 398/136/398
f 7/6/7 399/7/399 9/7/9
f 395/6/395 400/139/400 399/7/399
f 400/139/400 75/41/75 74/40/74
f 204/119/204 401/123/401 402/119/402
f 402/119/402 403/140/403 397/138/397
f 403/140/403 73/39/73 397/138/397
f 9/7/9 404/8/404 12/8/12
f 399/7/399 405/141/405 404/8/404
f 400/139/400 77/43/77 405/141/405
f 248/126/248 401/123/401 234/123/234
f 401/123/401 406/142/406 403/140/403
f 403/140/403 78/44/78 76/42/76
f 12/8/12 407/9/407 14/9/14
f 404/8/404 408/143/408 407/9/407
f 405/141/405 79/45/79 408/143/408
f 248/126/248 409/130/409 410/126/410
f 410/126/410 411/144/411 406/142/406
f 406/142/406 80/46/80 78/44/78
f 14/9/14 412/10/412 16/10/16
f 407/9/407 413/145/413 412/10/412
f 413/145/413 79/45/79 81/47/81
f 255/130/255 414/101/414 409/130/409
f 414/101/414 411/144/411 409/130/409
f 415/146/415 80/46/80 411/144/411
f 16/10/16 416/11/416 18/11/18
f 412/10/412 417/147/417 416/11/416
f 417/147/417 81/47/81 83/49/83
f 146/101/146 418/100/418 414/101/414
f 414/101/414 419/150/419 415/146/415
f 419/150/419 82/48/82 415/146/415
f 19/12/19 416/11/416 420/12/420
f 420/12/420 417/147/417 421/148/421
f 417/147/417 85/51/85 421/148/421
f 158/104/158 418/100/418 159/100/159
f 422/104/422 419/150/419 418/100/418
f 419/150/419 86/52/86 84/50/84
f 21/13/21 420/12/420 423/13/423
f 420/12/420 424/151/424 423/13/423
f 421/148/421 87/53/87 424/151/424
f 173/109/173 422/104/422 158/104/158
f 425/109/425 426/149/426 422/104/422
f 426/149/426 88/54/88 86/52/86
f 23/14/23 423/13/423 427/14/427
f 427/14/427 424/151/424 428/153/428
f 428/153/428 87/53/87 89/55/89
f 191/116/191 425/109/425 173/109/173
f 429/116/429 430/152/430 425/109/425
f 431/154/431 88/54/88 430/152/430
f 23/14/23 432/15/432 25/15/25
f 432/15/432 428/153/428 433/155/433
f 433/155/433 89/55/89 91/57/91
f 191/116/191 434/120/434 429/116/429
f 434/120/434 431/154/431 429/116/429
f 435/156/435 90/56/90 431/154/431
f 28/16/28 432/15/432 436/16/436
f 436/16/436 433/155/433 437/157/437
f 433/155/433 93/59/93 437/157/437
f 223/124/223 434/120/434 208/120/208
f 438/124/438 435/156/435 434/120/434
f 435/156/435 94/60/94 92/58/92
f 28/16/28 439/17/439 30/17/30
f 439/17/439 437/157/437 440/159/440
f 437/157/437 95/61/95 440/159/440
f 223/124/223 441/127/441 438/124/438
f 441/127/441 442/158/442 438/124/438
f 442/158/442 96/62/96 94/60/94
f 30/17/30 443/18/443 32/18/32
f 439/17/439 444/161/444 443/18/443
f 444/161/444 95/61/95 97/63/97
f 250/127/250 445/97/445 441/127/441
f 441/127/441 446/163/446 447/160/447
f 446/163/446 96/62/96 447/160/447
f 34/19/34 443/18/443 448/19/448
f 443/18/443 449/162/449 448/19/448
f 449/162/449 97/63/97 99/65/99
f 149/96/149 445/97/445 131/97/131
f 445/97/445 450/166/450 446/163/446
f 450/166/450 98/64/98 446/163/446
f 34/19/34 451/20/451 35/20/35
f 451/20/451 449/162/449 452/164/452
f 449/162/449 101/67/101 452/164/452
f 149/96/149 453/102/453 454/96/454
f 453/102/453 450/166/450 454/96/454
f 450/166/450 102/68/102 100/66/100
f 37/21/37 451/20/451 455/21/455
f 455/21/455 452/164/452 456/167/456
f 456/167/456 101/67/101 103/69/103
f 161/105/161 453/102/453 148/102/148
f 457/105/457 458/165/458 453/102/453
f 458/165/458 104/70/104 102/68/102
f 39/22/39 455/21/455 459/22/459
f 455/21/455 460/169/460 459/22/459
f 460/169/460 103/69/103 105/71/105
f 178/112/178 457/105/457 161/105/161
f 457/105/457 461/172/461 462/168/462
f 461/172/461 104/70/104 462/168/462
f 41/23/41 459/22/459 463/23/463
f 459/22/459 464/170/464 463/23/463
f 464/170/464 105/71/105 107/73/107
f 196/117/196 465/112/465 178/112/178
f 465/112/465 466/171/466 461/172/461
f 466/171/466 106/72/106 461/172/461
f 44/24/44 463/23/463 467/24/467
f 463/23/463 468/173/468 467/24/467
f 464/170/464 109/75/109 468/173/468
f 227/121/227 469/117/469 196/117/196
f 469/117/469 470/174/470 466/171/466
f 466/171/466 110/76/110 108/74/108
f 44/24/44 471/25/471 46/25/46
f 467/24/467 472/175/472 471/25/471
f 468/173/468 111/77/111 472/175/472
f 227/121/227 473/125/473 474/121/474
f 474/121/474 475/176/475 470/174/470
f 470/174/470 112/78/112 110/76/110
f 46/25/46 476/26/476 48/26/48
f 471/25/471 477/177/477 476/26/476
f 477/177/477 111/77/111 113/79/113
f 241/125/241 478/128/478 473/125/473
f 473/125/473 479/179/479 475/176/475
f 479/179/479 112/78/112 475/176/475
f 50/27/50 476/26/476 480/27/480
f 476/26/476 481/178/481 480/27/480
f 481/178/481 113/79/113 115/81/115
f 138/98/138 478/128/478 252/128/252
f 478/128/478 482/182/482 479/179/479
f 482/182/482 114/80/114 479/179/479
f 50/27/50 483/28/483 51/28/51
f 483/28/483 481/178/481 484/180/484
f 481/178/481 117/83/117 484/180/484
f 138/98/138 485/99/485 486/98/486
f 485/99/485 482/182/482 486/98/486
f 482/182/482 118/84/118 116/82/116
f 53/29/53 483/28/483 487/29/487
f 487/29/487 484/180/484 488/183/488
f 484/180/484 119/85/119 488/183/488
f 153/103/153 485/99/485 137/99/137
f 489/103/489 490/181/490 485/99/485
f 490/181/490 120/86/120 118/84/118
f 55/30/55 487/29/487 491/30/491
f 491/30/491 488/183/488 492/185/492
f 492/185/492 119/85/119 121/87/121
f 167/108/167 489/103/489 153/103/153
f 493/108/493 494/184/494 489/103/489
f 495/187/495 120/86/120 494/184/494
f 55/30/55 496/31/496 57/31/57
f 496/31/496 492/185/492 497/186/497
f 497/186/497 121/87/121 123/89/123
f 167/108/167 498/113/498 493/108/493
f 498/113/498 495/187/495 493/108/493
f 499/189/499 122/88/122 495/187/495
f 57/31/57 500/32/500 60/32/60
f 500/32/500 497/186/497 501/188/501
f 497/186/497 125/91/125 501/188/501
f 182/113/182 502/118/502 498/113/498
f 502/118/502 499/189/499 498/113/498
f 499/189/499 126/92/126 124/90/124
f 60/32/60 503/33/503 62/33/62
f 503/33/503 501/188/501 504/190/504
f 501/188/501 127/93/127 504/190/504
f 216/118/216 505/122/505 502/118/502
f 505/122/505 506/192/506 502/118/502
f 506/192/506 128/94/128 126/92/126
f 62/33/62 507/34/507 64/34/64
f 503/33/503 508/193/508 507/34/507
f 508/193/508 127/93/127 72/3/72
f 230/122/230 509/111/509 505/122/505
f 505/122/505 510/196/510 511/191/511
f 510/196/510 128/94/128 511/191/511
f 66/35/66 507/34/507 512/35/512
f 507/34/507 386/199/386 512/35/512
f 386/199/386 72/3/72 71/1/71
f 244/110/244 509/111/509 175/111/175
f 509/111/509 390/200/390 510/196/510
f 390/200/390 70/2/70 510/196/510
f 65/132/65 385/4/385 4/4/4
f 1/1/1 165/195/165 2/2/2
f 4/4/4 385/4/385 5/5/5
f 6/5/6 5/5/5 7/6/7
f 8/6/8 7/6/7 9/7/9
f 11/8/11 10/7/10 9/7/9
f 13/9/13 11/8/11 12/8/12
f 15/10/15 13/9/13 14/9/14
f 17/11/17 15/10/15 16/10/16
f 17/11/17 18/11/18 19/12/19
f 20/12/20 19/12/19 21/13/21
f 22/13/22 21/13/21 23/14/23
f 24/14/24 23/14/23 25/15/25
f 27/16/27 26/15/26 25/15/25
f 29/17/29 27/16/27 28/16/28
f 31/18/31 29/17/29 30/17/30
f 33/19/33 31/18/31 32/18/32
f 33/19/33 34/19/34 35/20/35
f 36/20/36 35/20/35 37/21/37
f 38/21/38 37/21/37 39/22/39
f 40/22/40 39/22/39 41/23/41
f 43/24/43 42/23/42 41/23/41
f 45/25/45 43/24/43 44/24/44
f 47/26/47 45/25/45 46/25/46
f 49/27/49 47/26/47 48/26/48
f 49/27/49 50/27/50 51/28/51
f 52/28/52 51/28/51 53/29/53
f 54/29/54 53/29/53 55/30/55
f 56/30/56 55/30/55 57/31/57
f 59/32/59 58/31/58 57/31/57
f 61/33/61 59/32/59 60/32/60
f 63/34/63 61/33/61 62/33/62
f 65/35/65 63/34/63 64/34/64
f 67/36/67 129/95/129 68/37/68
f 70/2/70 235/195/235 71/1/71
f 73/39/73 76/42/76 74/40/74
f 76/42/76 78/44/78 77/43/77
f 78/44/78 80/46/80 79/45/79
f 80/46/80 82/48/82 81/47/81
f 82/48/82 84/50/84 83/49/83
f 84/50/84 86/52/86 85/51/85
f 86/52/86 88/54/88 87/53/87
f 88/54/88 90/56/90 89/55/89
f 90/56/90 92/58/92 91/57/91
f 92/58/92 94/60/94 93/59/93
f 94/60/94 96/62/96 95/61/95
f 96/62/96 98/64/98 97/63/97
f 98/64/98 100/66/100 99/65/99
f 100/66/100 102/68/102 101/67/101
f 102/68/102 104/70/104 103/69/103
f 104/70/104 106/72/106 105/71/105
f 106/72/106 108/74/108 107/73/107
f 108/74/108 110/76/110 109/75/109
f 110/76/110 112/78/112 111/77/111
f 112/78/112 114/80/114 113/79/113
f 114/80/114 116/82/116 115/81/115
f 116/82/116 118/84/118 117/83/117
f 118/84/118 120/86/120 119/85/119
f 120/86/120 122/88/122 121/87/121
f 122/88/122 124/90/124 123/89/123
f 124/90/124 126/92/126 125/91/125
f 126/92/126 128/94/128 127/93/127
f 128/94/128 70/2/70 72/3/72
f 129/95/129 73/39/73 75/41/75
f 130/96/130 149/96/149 131/97/131
f 133/49/133 151/50/151 134/48/134
f 136/98/136 152/99/152 137/99/137
f 139/67/139 155/68/155 140/66/140
f 142/85/142 157/86/157 143/84/143
f 145/100/145 159/100/159 146/101/146
f 130/96/130 160/102/160 148/102/148
f 150/51/150 163/52/163 151/50/151
f 152/99/152 166/103/166 153/103/153
f 154/69/154 169/70/169 155/68/155
f 156/87/156 171/88/171 157/86/157
f 145/100/145 172/104/172 158/104/158
f 160/102/160 177/105/177 161/105/161
f 162/53/162 180/54/180 163/52/163
f 164/38/164 249/36/249 165/106/165
f 166/103/166 181/108/181 167/108/167
f 168/71/168 184/72/184 169/70/169
f 170/89/170 189/90/189 171/88/171
f 172/104/172 190/109/190 173/109/173
f 174/110/174 244/110/244 175/111/175
f 177/105/177 195/112/195 178/112/178
f 179/55/179 198/56/198 180/54/180
f 181/108/181 200/113/200 182/113/182
f 183/73/183 202/74/202 184/72/184
f 185/114/185 203/115/203 186/115/186
f 188/91/188 206/92/206 189/90/189
f 190/109/190 207/116/207 191/116/191
f 192/41/192 210/39/210 193/95/193
f 195/112/195 212/117/212 196/117/196
f 197/57/197 214/58/214 198/56/198
f 199/118/199 216/118/216 182/113/182
f 201/75/201 218/76/218 202/74/202
f 203/115/203 220/119/220 204/119/204
f 205/93/205 221/94/221 206/92/206
f 207/116/207 222/120/222 208/120/208
f 209/40/209 225/42/225 210/39/210
f 211/121/211 227/121/227 196/117/196
f 213/59/213 229/60/229 214/58/214
f 215/122/215 230/122/230 216/118/216
f 217/77/217 232/78/232 218/76/218
f 219/123/219 234/123/234 204/119/204
f 3/3/3 2/2/2 221/94/221
f 222/120/222 237/124/237 223/124/223
f 224/43/224 239/44/239 225/42/225
f 226/125/226 241/125/241 227/121/227
f 228/61/228 243/62/243 229/60/229
f 176/111/176 175/111/175 230/122/230
f 231/79/231 246/80/246 232/78/232
f 233/126/233 248/126/248 234/123/234
f 235/106/235 67/36/67 69/38/69
f 236/127/236 250/127/250 223/124/223
f 238/45/238 251/46/251 239/44/239
f 240/128/240 252/128/252 241/125/241
f 242/63/242 253/64/253 243/62/243
f 174/129/174 185/114/185 187/114/187
f 245/81/245 254/82/254 246/80/246
f 247/130/247 255/130/255 248/126/248
f 194/37/194 193/95/193 249/36/249
f 132/97/132 131/97/131 250/127/250
f 135/47/135 134/48/134 251/46/251
f 136/98/136 138/98/138 252/128/252
f 141/65/141 140/66/140 253/64/253
f 144/83/144 143/84/143 254/82/254
f 147/101/147 146/101/146 255/130/255
f 1/107/1 382/201/382 256/131/256
f 256/131/256 382/201/382 257/132/257
f 258/4/258 257/132/257 65/132/65
f 165/106/165 249/36/249 259/133/259
f 259/133/259 262/114/262 261/129/261
f 262/114/262 185/114/185 174/129/174
f 164/38/164 256/131/256 263/135/263
f 263/135/263 256/131/256 258/4/258
f 258/4/258 4/4/4 6/5/6
f 193/95/193 265/136/265 259/133/259
f 265/136/265 269/115/269 262/114/262
f 262/114/262 269/115/269 203/115/203
f 192/41/192 194/37/194 263/135/263
f 266/137/266 263/135/263 264/5/264
f 264/5/264 6/5/6 8/6/8
f 210/39/210 268/138/268 265/136/265
f 268/138/268 273/119/273 269/115/269
f 269/115/269 273/119/273 220/119/220
f 209/40/209 192/41/192 266/137/266
f 270/139/270 266/137/266 267/6/267
f 267/6/267 8/6/8 10/7/10
f 225/42/225 272/140/272 268/138/268
f 272/140/272 278/123/278 273/119/273
f 273/119/273 278/123/278 219/123/219
f 209/40/209 270/139/270 274/141/274
f 270/139/270 271/7/271 275/8/275
f 275/8/275 271/7/271 10/7/10
f 225/42/225 239/44/239 276/142/276
f 272/140/272 276/142/276 277/126/277
f 277/126/277 233/126/233 219/123/219
f 224/43/224 274/141/274 279/143/279
f 274/141/274 275/8/275 280/9/280
f 280/9/280 275/8/275 11/8/11
f 239/44/239 251/46/251 281/144/281
f 276/142/276 281/144/281 282/130/282
f 282/130/282 247/130/247 233/126/233
f 238/45/238 279/143/279 283/145/283
f 279/143/279 280/9/280 284/10/284
f 284/10/284 280/9/280 13/9/13
f 251/46/251 134/48/134 285/146/285
f 281/144/281 285/146/285 286/101/286
f 286/101/286 147/101/147 247/130/247
f 133/49/133 135/47/135 283/145/283
f 283/145/283 284/10/284 288/11/288
f 284/10/284 15/10/15 17/11/17
f 151/50/151 293/150/293 285/146/285
f 285/146/285 293/150/293 289/100/289
f 286/101/286 289/100/289 145/100/145
f 133/49/133 287/147/287 290/148/290
f 290/148/290 287/147/287 288/11/288
f 291/12/291 288/11/288 17/11/17
f 151/50/151 163/52/163 292/149/292
f 292/149/292 294/104/294 289/100/289
f 294/104/294 172/104/172 145/100/145
f 162/53/162 150/51/150 290/148/290
f 295/151/295 290/148/290 291/12/291
f 291/12/291 20/12/20 22/13/22
f 180/54/180 297/152/297 292/149/292
f 297/152/297 301/109/301 294/104/294
f 294/104/294 301/109/301 190/109/190
f 179/55/179 162/53/162 295/151/295
f 298/153/298 295/151/295 296/13/296
f 296/13/296 22/13/22 24/14/24
f 198/56/198 300/154/300 297/152/297
f 300/154/300 305/116/305 301/109/301
f 301/109/301 305/116/305 207/116/207
f 197/57/197 179/55/179 298/153/298
f 302/155/302 298/153/298 299/14/299
f 299/14/299 24/14/24 26/15/26
f 214/58/214 304/156/304 300/154/300
f 304/156/304 310/120/310 305/116/305
f 305/116/305 310/120/310 222/120/222
f 197/57/197 302/155/302 306/157/306
f 302/155/302 303/15/303 307/16/307
f 307/16/307 303/15/303 26/15/26
f 214/58/214 229/60/229 308/158/308
f 304/156/304 308/158/308 309/124/309
f 309/124/309 237/124/237 222/120/222
f 213/59/213 306/157/306 311/159/311
f 306/157/306 307/16/307 312/17/312
f 312/17/312 307/16/307 27/16/27
f 229/60/229 243/62/243 313/160/313
f 308/158/308 313/160/313 314/127/314
f 314/127/314 236/127/236 237/124/237
f 228/61/228 311/159/311 315/161/315
f 311/159/311 312/17/312 316/18/316
f 316/18/316 312/17/312 29/17/29
f 253/64/253 320/163/320 313/160/313
f 313/160/313 320/163/320 317/97/317
f 317/97/317 132/97/132 236/127/236
f 141/65/141 242/63/242 315/161/315
f 315/161/315 316/18/316 319/19/319
f 316/18/316 31/18/31 33/19/33
f 140/66/140 325/166/325 320/163/320
f 320/163/320 325/166/325 321/96/321
f 317/97/317 321/96/321 130/96/130
f 141/65/141 318/162/318 322/164/322
f 322/164/322 318/162/318 319/19/319
f 319/19/319 33/19/33 36/20/36
f 140/66/140 155/68/155 324/165/324
f 324/165/324 329/102/329 321/96/321
f 321/96/321 329/102/329 160/102/160
f 154/69/154 139/67/139 322/164/322
f 322/164/322 323/20/323 327/21/327
f 323/20/323 36/20/36 38/21/38
f 169/70/169 328/168/328 324/165/324
f 328/168/328 333/105/333 329/102/329
f 329/102/329 333/105/333 177/105/177
f 154/69/154 326/167/326 330/169/330
f 330/169/330 326/167/326 327/21/327
f 327/21/327 38/21/38 40/22/40
f 184/72/184 337/172/337 328/168/328
f 328/168/328 337/172/337 332/112/332
f 333/105/333 332/112/332 195/112/195
f 168/71/168 330/169/330 334/170/334
f 334/170/334 330/169/330 331/22/331
f 331/22/331 40/22/40 42/23/42
f 184/72/184 202/74/202 336/171/336
f 337/172/337 336/171/336 338/117/338
f 332/112/332 338/117/338 212/117/212
f 183/73/183 334/170/334 339/173/339
f 339/173/339 334/170/334 335/23/335
f 340/24/340 335/23/335 42/23/42
f 202/74/202 218/76/218 341/174/341
f 341/174/341 342/121/342 338/117/338
f 342/121/342 211/121/211 212/117/212
f 201/75/201 339/173/339 343/175/343
f 343/175/343 339/173/339 340/24/340
f 340/24/340 43/24/43 45/25/45
f 218/76/218 232/78/232 345/176/345
f 345/176/345 349/125/349 342/121/342
f 342/121/342 349/125/349 226/125/226
f 217/77/217 343/175/343 346/177/346
f 343/175/343 344/25/344 347/26/347
f 344/25/344 45/25/45 47/26/47
f 246/80/246 352/179/352 345/176/345
f 345/176/345 352/179/352 348/128/348
f 349/125/349 348/128/348 240/128/240
f 245/81/245 231/79/231 346/177/346
f 346/177/346 347/26/347 351/27/351
f 347/26/347 47/26/47 49/27/49
f 254/82/254 357/182/357 352/179/352
f 352/179/352 357/182/357 353/98/353
f 348/128/348 353/98/353 136/98/136
f 245/81/245 350/178/350 354/180/354
f 354/180/354 350/178/350 351/27/351
f 355/28/355 351/27/351 49/27/49
f 254/82/254 143/84/143 356/181/356
f 356/181/356 358/99/358 353/98/353
f 358/99/358 152/99/152 136/98/136
f 144/83/144 354/180/354 359/183/359
f 359/183/359 354/180/354 355/28/355
f 360/29/360 355/28/355 52/28/52
f 157/86/157 361/184/361 356/181/356
f 361/184/361 362/103/362 358/99/358
f 362/103/362 166/103/166 152/99/152
f 156/87/156 142/85/142 359/183/359
f 359/183/359 360/29/360 364/30/364
f 364/30/364 360/29/360 54/29/54
f 171/88/171 368/187/368 361/184/361
f 361/184/361 368/187/368 365/108/365
f 365/108/365 181/108/181 166/103/166
f 170/89/170 156/87/156 363/185/363
f 363/185/363 364/30/364 367/31/367
f 364/30/364 56/30/56 58/31/58
f 189/90/189 372/189/372 368/187/368
f 368/187/368 372/189/372 369/113/369
f 365/108/365 369/113/369 200/113/200
f 188/91/188 170/89/170 366/186/366
f 370/188/370 366/186/366 367/31/367
f 371/32/371 367/31/367 58/31/58
f 206/92/206 377/192/377 372/189/372
f 372/189/372 377/192/377 373/118/373
f 373/118/373 199/118/199 200/113/200
f 188/91/188 370/188/370 374/190/374
f 374/190/374 370/188/370 371/32/371
f 375/33/375 371/32/371 59/32/59
f 206/92/206 221/94/221 376/191/376
f 377/192/377 376/191/376 378/122/378
f 378/122/378 215/122/215 199/118/199
f 3/3/3 205/93/205 374/190/374
f 374/190/374 375/33/375 380/34/380
f 380/34/380 375/33/375 61/33/61
f 2/2/2 383/196/383 376/191/376
f 376/191/376 383/196/383 381/111/381
f 381/111/381 176/111/176 215/122/215
f 1/1/1 3/3/3 379/193/379
f 379/193/379 380/34/380 257/35/257
f 380/34/380 63/34/63 65/35/65
f 165/195/165 260/202/260 383/196/383
f 383/196/383 260/202/260 261/110/261
f 381/111/381 261/110/261 174/110/174
f 66/132/66 512/132/512 384/4/384
f 384/4/384 512/132/512 386/197/386
f 386/197/386 71/107/71 69/38/69
f 244/129/244 187/114/187 388/114/388
f 388/114/388 394/133/394 390/198/390
f 390/198/390 394/133/394 67/36/67
f 5/5/5 385/4/385 384/4/384
f 391/5/391 384/4/384 387/131/387
f 387/131/387 69/38/69 68/37/68
f 186/115/186 393/115/393 388/114/388
f 393/115/393 398/136/398 394/133/394
f 394/133/394 398/136/398 129/95/129
f 7/6/7 5/5/5 391/5/391
f 391/5/391 392/135/392 396/137/396
f 396/137/396 392/135/392 68/37/68
f 204/119/204 402/119/402 393/115/393
f 393/115/393 402/119/402 397/138/397
f 397/138/397 73/39/73 129/95/129
f 7/6/7 395/6/395 399/7/399
f 395/6/395 396/137/396 400/139/400
f 400/139/400 396/137/396 75/41/75
f 204/119/204 234/123/234 401/123/401
f 402/119/402 401/123/401 403/140/403
f 403/140/403 76/42/76 73/39/73
f 9/7/9 399/7/399 404/8/404
f 399/7/399 400/139/400 405/141/405
f 400/139/400 74/40/74 77/43/77
f 248/126/248 410/126/410 401/123/401
f 401/123/401 410/126/410 406/142/406
f 403/140/403 406/142/406 78/44/78
f 12/8/12 404/8/404 407/9/407
f 404/8/404 405/141/405 408/143/408
f 405/141/405 77/43/77 79/45/79
f 248/126/248 255/130/255 409/130/409
f 410/126/410 409/130/409 411/144/411
f 406/142/406 411/144/411 80/46/80
f 14/9/14 407/9/407 412/10/412
f 407/9/407 408/143/408 413/145/413
f 413/145/413 408/143/408 79/45/79
f 255/130/255 146/101/146 414/101/414
f 414/101/414 415/146/415 411/144/411
f 415/146/415 82/48/82 80/46/80
f 16/10/16 412/10/412 416/11/416
f 412/10/412 413/145/413 417/147/417
f 417/147/417 413/145/413 81/47/81
f 146/101/146 159/100/159 418/100/418
f 414/101/414 418/100/418 419/150/419
f 419/150/419 84/50/84 82/48/82
f 19/12/19 18/11/18 416/11/416
f 420/12/420 416/11/416 417/147/417
f 417/147/417 83/49/83 85/51/85
f 158/104/158 422/104/422 418/100/418
f 422/104/422 426/149/426 419/150/419
f 419/150/419 426/149/426 86/52/86
f 21/13/21 19/12/19 420/12/420
f 420/12/420 421/148/421 424/151/424
f 421/148/421 85/51/85 87/53/87
f 173/109/173 425/109/425 422/104/422
f 425/109/425 430/152/430 426/149/426
f 426/149/426 430/152/430 88/54/88
f 23/14/23 21/13/21 423/13/423
f 427/14/427 423/13/423 424/151/424
f 428/153/428 424/151/424 87/53/87
f 191/116/191 429/116/429 425/109/425
f 429/116/429 431/154/431 430/152/430
f 431/154/431 90/56/90 88/54/88
f 23/14/23 427/14/427 432/15/432
f 432/15/432 427/14/427 428/153/428
f 433/155/433 428/153/428 89/55/89
f 191/116/191 208/120/208 434/120/434
f 434/120/434 435/156/435 431/154/431
f 435/156/435 92/58/92 90/56/90
f 28/16/28 25/15/25 432/15/432
f 436/16/436 432/15/432 433/155/433
f 433/155/433 91/57/91 93/59/93
f 223/124/223 438/124/438 434/120/434
f 438/124/438 442/158/442 435/156/435
f 435/156/435 442/158/442 94/60/94
f 28/16/28 436/16/436 439/17/439
f 439/17/439 436/16/436 437/157/437
f 437/157/437 93/59/93 95/61/95
f 223/124/223 250/127/250 441/127/441
f 441/127/441 447/160/447 442/158/442
f 442/158/442 447/160/447 96/62/96
f 30/17/30 439/17/439 443/18/443
f 439/17/439 440/159/440 444/161/444
f 444/161/444 440/159/440 95/61/95
f 250/127/250 131/97/131 445/97/445
f 441/127/441 445/97/445 446/163/446
f 446/163/446 98/64/98 96/62/96
f 34/19/34 32/18/32 443/18/443
f 443/18/443 444/161/444 449/162/449
f 449/162/449 444/161/444 97/63/97
f 149/96/149 454/96/454 445/97/445
f 445/97/445 454/96/454 450/166/450
f 450/166/450 100/66/100 98/64/98
f 34/19/34 448/19/448 451/20/451
f 451/20/451 448/19/448 449/162/449
f 449/162/449 99/65/99 101/67/101
f 149/96/149 148/102/148 453/102/453
f 453/102/453 458/165/458 450/166/450
f 450/166/450 458/165/458 102/68/102
f 37/21/37 35/20/35 451/20/451
f 455/21/455 451/20/451 452/164/452
f 456/167/456 452/164/452 101/67/101
f 161/105/161 457/105/457 453/102/453
f 457/105/457 462/168/462 458/165/458
f 458/165/458 462/168/462 104/70/104
f 39/22/39 37/21/37 455/21/455
f 455/21/455 456/167/456 460/169/460
f 460/169/460 456/167/456 103/69/103
f 178/112/178 465/112/465 457/105/457
f 457/105/457 465/112/465 461/172/461
f 461/172/461 106/72/106 104/70/104
f 41/23/41 39/22/39 459/22/459
f 459/22/459 460/169/460 464/170/464
f 464/170/464 460/169/460 105/71/105
f 196/117/196 469/117/469 465/112/465
f 465/112/465 469/117/469 466/171/466
f 466/171/466 108/74/108 106/72/106
f 44/24/44 41/23/41 463/23/463
f 463/23/463 464/170/464 468/173/468
f 464/170/464 107/73/107 109/75/109
f 227/121/227 474/121/474 469/117/469
f 469/117/469 474/121/474 470/174/470
f 466/171/466 470/174/470 110/76/110
f 44/24/44 467/24/467 471/25/471
f 467/24/467 468/173/468 472/175/472
f 468/173/468 109/75/109 111/77/111
f 227/121/227 241/125/241 473/125/473
f 474/121/474 473/125/473 475/176/475
f 470/174/470 475/176/475 112/78/112
f 46/25/46 471/25/471 476/26/476
f 471/25/471 472/175/472 477/177/477
f 477/177/477 472/175/472 111/77/111
f 241/125/241 252/128/252 478/128/478
f 473/125/473 478/128/478 479/179/479
f 479/179/479 114/80/114 112/78/112
f 50/27/50 48/26/48 476/26/476
f 476/26/476 477/177/477 481/178/481
f 481/178/481 477/177/477 113/79/113
f 138/98/138 486/98/486 478/128/478
f 478/128/478 486/98/486 482/182/482
f 482/182/482 116/82/116 114/80/114
f 50/27/50 480/27/480 483/28/483
f 483/28/483 480/27/480 481/178/481
f 481/178/481 115/81/115 117/83/117
f 138/98/138 137/99/137 485/99/485
f 485/99/485 490/181/490 482/182/482
f 482/182/482 490/181/490 118/84/118
f 53/29/53 51/28/51 483/28/483
f 487/29/487 483/28/483 484/180/484
f 484/180/484 117/83/117 119/85/119
f 153/103/153 489/103/489 485/99/485
f 489/103/489 494/184/494 490/181/490
f 490/181/490 494/184/494 120/86/120
f 55/30/55 53/29/53 487/29/487
f 491/30/491 487/29/487 488/183/488
f 492/185/492 488/183/488 119/85/119
f 167/108/167 493/108/493 489/103/489
f 493/108/493 495/187/495 494/184/494
f 495/187/495 122/88/122 120/86/120
f 55/30/55 491/30/491 496/31/496
f 496/31/496 491/30/491 492/185/492
f 497/186/497 492/185/492 121/87/121
f 167/108/167 182/113/182 498/113/498
f 498/113/498 499/189/499 495/187/495
f 499/189/499 124/90/124 122/88/122
f 57/31/57 496/31/496 500/32/500
f 500/32/500 496/31/496 497/186/497
f 497/186/497 123/89/123 125/91/125
f 182/113/182 216/118/216 502/118/502
f 502/118/502 506/192/506 499/189/499
f 499/189/499 506/192/506 126/92/126
f 60/32/60 500/32/500 503/33/503
f 503/33/503 500/32/500 501/188/501
f 501/188/501 125/91/125 127/93/127
f 216/118/216 230/122/230 505/122/505
f 505/122/505 511/191/511 506/192/506
f 506/192/506 511/191/511 128/94/128
f 62/33/62 503/33/503 507/34/507
f 503/33/503 504/190/504 508/193/508
f 508/193/508 504/190/504 127/93/127
f 230/122/230 175/111/175 509/111/509
f 505/122/505 509/111/509 510/196/510
f 510/196/510 70/2/70 128/94/128
f 66/35/66 64/34/64 507/34/507
f 507/34/507 508/193/508 386/199/386
f 386/199/386 508/193/508 72/3/72
f 244/110/244 389/110/389 509/111/509
f 509/111/509 389/110/389 390/200/390
f 390/200/390 235/195/235 70/2/70
f 65/132/65 66/132/66 385/4/385
# Vertices: 512, normals: 512, texture coordinates: 202, faces: 1024

